<?xml version="1.0" encoding="UTF-8"?>
<svg id="_图层_2" data-name="图层 2" xmlns="http://www.w3.org/2000/svg" xmlns:xlink="http://www.w3.org/1999/xlink" viewBox="0 0 754.13 101.29">
  <defs>
    <style>
      .cls-1 {
        fill: url(#linear-gradient-2);
      }

      .cls-2 {
        fill: #1c2a55;
      }

      .cls-3 {
        fill: #0085d0;
      }

      .cls-4 {
        fill: url(#_未命名的渐变_133-2);
      }

      .cls-5 {
        fill: #8fc31f;
      }

      .cls-6 {
        fill: #3e3a39;
      }

      .cls-7 {
        fill: url(#_未命名的渐变_32-2);
      }

      .cls-8 {
        fill: url(#_未命名的渐变_84-2);
      }

      .cls-9 {
        fill: url(#_未命名的渐变_32);
      }

      .cls-10 {
        fill: url(#_未命名的渐变_84);
      }

      .cls-11 {
        fill: url(#linear-gradient);
      }

      .cls-12 {
        fill: url(#_未命名的渐变_133);
      }
    </style>
    <linearGradient id="linear-gradient" x1="2310.48" y1="-1787.97" x2="2408.14" y2="-1787.97" gradientTransform="translate(2153.78 2408.14) rotate(-90)" gradientUnits="userSpaceOnUse">
      <stop offset="0" stop-color="#8fc31f"/>
      <stop offset="1" stop-color="#0085d0"/>
    </linearGradient>
    <linearGradient id="linear-gradient-2" x1="2432.53" y1="1891.6" x2="2530.19" y2="1891.6" gradientTransform="translate(2258.88 -2428.91) rotate(90)" xlink:href="#linear-gradient"/>
    <linearGradient id="_未命名的渐变_32" data-name="未命名的渐变 32" x1="519.88" y1="74.92" x2="472.63" y2="27.67" gradientUnits="userSpaceOnUse">
      <stop offset="0" stop-color="#8fc31f"/>
      <stop offset=".19" stop-color="#80bf22"/>
      <stop offset=".54" stop-color="#5bb82a"/>
      <stop offset="1" stop-color="#22ac38"/>
    </linearGradient>
    <linearGradient id="_未命名的渐变_84" data-name="未命名的渐变 84" x1="489.15" y1="94.69" x2="518.55" y2="65.29" gradientUnits="userSpaceOnUse">
      <stop offset="0" stop-color="#0b318f"/>
      <stop offset=".19" stop-color="#093f9b"/>
      <stop offset=".55" stop-color="#0566ba"/>
      <stop offset="1" stop-color="#00a0e9"/>
    </linearGradient>
    <linearGradient id="_未命名的渐变_84-2" data-name="未命名的渐变 84" x1="462.63" y1="6.97" x2="434" y2="35.61" xlink:href="#_未命名的渐变_84"/>
    <linearGradient id="_未命名的渐变_32-2" data-name="未命名的渐变 32" x1="479.23" y1="73.31" x2="420.32" y2="14.39" xlink:href="#_未命名的渐变_32"/>
    <linearGradient id="_未命名的渐变_133" data-name="未命名的渐变 133" x1="450.59" y1="58.53" x2="492.26" y2="16.86" gradientUnits="userSpaceOnUse">
      <stop offset="0" stop-color="#8fc31f"/>
      <stop offset=".15" stop-color="#80bc22"/>
      <stop offset=".43" stop-color="#5baa2b"/>
      <stop offset=".82" stop-color="#1f8d39"/>
      <stop offset="1" stop-color="#007f41"/>
    </linearGradient>
    <linearGradient id="_未命名的渐变_133-2" data-name="未命名的渐变 133" x1="500.63" y1="43.7" x2="450.19" y2="94.15" xlink:href="#_未命名的渐变_133"/>
  </defs>
  <g id="_图层_1-2" data-name="图层 1">
    <g>
      <g>
        <g>
          <path class="cls-5" d="m99.77,62.37c-9.03-11.94-22.53-24.16-26.25-27.19-2.61-2.12-5.21-3.18-7.78-3.14-2.57.03-5.05,1.09-7.25,3-.44.38-1.07.95-1.85,1.64-5.36,4.52-21.93,19.75-22.31,20.11-1.26,1.17-2.87,1.94-4.67,1.88-1.59-.07-3.34-.78-5.13-2.44-1.23-1.14-6.89-5.58-13.51-13.02-4.07-4.58-7.43-8.65-7.43-8.65,0,0-.75,1.54-1.17,2.61-.35.89-.05,1.46.12,1.7,2.21,3.17,12.3,15.25,26.22,27.24,2.55,2.2,5.21,3.18,7.77,3.15,2.57-.03,5.05-1.09,7.25-3.01.44-.38,1.07-.94,1.85-1.64,5.36-4.52,15.4-13.73,20.16-18.14,1.02-.92,1.77-1.61,2.15-1.97,1.26-1.18,2.87-1.95,4.68-1.88,1.59.07,3.27.85,5.13,2.44,2.98,2.54,7.8,7,13.51,13.02,4.2,4.43,7.4,8.57,7.44,8.61,0,0,.78-1.59,1.2-2.68.34-.9.05-1.4-.13-1.64Z"/>
          <g>
            <g>
              <path class="cls-3" d="m46.14,18.46c-4.66,3.4-23.85,21.23-27.61,25.49,0,0,2.7,2.98,6.75,6.34,1.05.9,2.32.71,3.42-.4,7.39-7.43,22.47-20.72,24.5-22.35,5.68-4.83,12.3-5.25,18.37-.71,14.73,11.03,27.75,28.39,29.99,31.62,0,0,.34-1.6.54-3.03.01-.08.28-1.37-.45-2.46-13.81-19.94-28.51-32.25-34.15-35.32-6.46-3.52-13.92-4.62-21.35.81Z"/>
              <path class="cls-3" d="m30.61,8.06C21.13,15.71,8.92,26.98,5.83,30.38c0,0,2.31,2.88,5.93,6.42.7.6,1.44.44,2.05-.21,9.37-9.05,19.53-18.29,25.42-22.85,9.94-7.69,21.6-8.44,32.97.65,4.23,3.39,7.99,6.73,13.48,12.38,7.02,7.65,11.6,14.04,16.61,21.24,0,0-.02-1.93-.58-4.49-.09-.43-.29-1.14-.59-1.76-1-2.02-5.44-9.62-11.86-17.12-12.74-14.88-20.78-19.41-25.94-22.12-6.83-3.59-20.16-4.64-32.72,5.52Z"/>
            </g>
            <g>
              <path class="cls-3" d="m56.16,82.82c4.66-3.4,23.85-21.22,27.61-25.48,0,0-2.7-2.98-6.75-6.34-1.05-.9-2.32-.71-3.42.39-7.39,7.43-22.47,20.73-24.49,22.35-5.69,4.83-12.31,5.25-18.37.71C16.01,63.42,2.99,46.06.75,42.83c0,0-.34,1.6-.54,3.03-.01.08-.29,1.37.45,2.46,13.81,19.94,28.51,32.25,34.15,35.32,6.46,3.52,13.91,4.62,21.35-.81Z"/>
              <path class="cls-3" d="m71.69,93.23c9.47-7.66,21.68-18.92,24.78-22.32,0,0-2.31-2.88-5.93-6.42-.7-.6-1.44-.44-2.06.21-9.37,9.05-19.53,18.29-25.42,22.84-9.94,7.69-21.61,8.44-32.97-.65-4.24-3.38-7.99-6.73-13.48-12.38C9.59,66.86,5.01,60.47,0,53.26c0,0-.04,1.86.58,4.49.1.43.29,1.13.6,1.76,1.01,2.03,5.44,9.62,11.86,17.12,12.74,14.88,20.78,19.41,25.94,22.12,6.83,3.59,20.16,4.64,32.72-5.52Z"/>
            </g>
          </g>
        </g>
        <g>
          <path class="cls-3" d="m148.2,5.62h-4.92v8.93h-18.17v24.97h18.17v13.55h4.92v-13.55h18.35V14.55h-18.35V5.62Zm-4.92,13.29v16.22h-13.43v-16.22h13.43Zm18.52,0v16.22h-13.6v-16.22h13.6Z"/>
          <path class="cls-3" d="m205.67,30.05l-3.35,2.52.34.35c1.37,1.44,3.1,3.54,4.56,5.51l.28.36,3.49-2.66-.28-.35c-1.24-1.58-3.08-3.67-4.79-5.44l-.26-.29Z"/>
          <polygon class="cls-3" points="212.84 39.47 201 39.47 201 29.67 211.14 29.67 211.14 25.59 201 25.59 201 19.39 212.09 19.39 212.09 15.3 185.6 15.3 185.6 19.39 196.64 19.39 196.64 25.59 186.5 25.59 186.5 29.67 196.64 29.67 196.64 39.47 184.86 39.47 184.86 43.56 212.84 43.56 212.84 39.47"/>
          <path class="cls-3" d="m177.81,51.86l42.14-.03V7.33h-42.14v44.53Zm37.64-40.31v36.06h-33.13V11.55h33.13Z"/>
          <path class="cls-3" d="m248.63,32.99c-2.04-1.8-7.6-6.31-7.6-6.31v-2.35h6.55v-4.23h-6.55v-6.84c4.63-.75,6.67-1.37,6.67-1.37l-.9-4.34s-4.12,1.05-8.34,1.62c-5.42.73-8.66,1.05-8.66,1.05l.48,4.27s3.61-.38,6.39-.88v6.49h-7.46v4.23h6.81c-1.84,5.68-4.63,11.18-7.67,15.52,0,0,3.18,3.44,3.22,3.39,1.94-2.74,3.66-5.82,5.09-9.16v18.97h4.36v-20.81c1.62,1.47,3.11,2.86,4.51,4.17l.32.32,3.09-3.45-.32-.29Z"/>
          <path class="cls-3" d="m264.03,29.63c.77-1.04,1.1-2.2,1.1-2.2l-4.34-.73c.83-.45,1.62-.93,2.39-1.42,5.19-3.32,8.84-7.24,11.11-11.65l.05-.1v-3.94h-15.27c.48-.77.93-1.58,1.35-2.38l.22-.44-4.18-1.58-.17.35c-2.36,4.75-5.78,8.97-10.16,12.56-.04.04,2.26,1.81,3.61,2.67,2.64-2.35,4.81-4.68,6.45-6.94h12.85c-2.26,2.95-4.49,5.36-7.05,7.03-1.7-1.51-3.15-2.71-5.34-4.42l-.31-.24-2.76,3,.36.29c1.95,1.6,3.07,2.59,4.35,3.81-3.36,1.82-7.05,3.26-11.25,4.51,0,0,2.76,3.73,2.84,3.71,2.49-.87,7.57-3.12,9.76-4.12-2.9,5.74-9.27,10.32-13.69,12.74,0,0,1.91,2.04,3.4,3.23,7.05-3.23,11.88-9.5,11.88-9.5h9.73c-.63,3.35-3.55,7.51-7.65,10.02-1.63-1.61-3.22-3.2-5.15-4.94l-3.1,2.7c1.7,1.57,3.21,3.19,4.48,4.52-6.2,2.68-14.49,3.06-14.49,3.06l1.72,3.78s24.31-.61,29.23-19.31l.03-4.06h-12Z"/>
          <rect class="cls-3" x="284.41" y="10.11" width="19.81" height="4.36"/>
          <g>
            <path class="cls-3" d="m305.03,44.23c-1.41-3.48-3.58-8.38-5.2-11.89l-.19-.4-4.04,1.81.18.41c1.07,2.38,2.04,4.55,3.02,7l-10.43,2.46c2.3-3.76,5.18-12.24,6.74-16.77h11v-4.38h-23.67v4.38h7.79c-.47,2.49-3.18,10.74-6.87,17.47-.46.83-1.1,1.32-1.1,1.32l1.3,3.14s12.71-3.43,16.53-4.01l.46,1.15,4.48-1.7Z"/>
            <path class="cls-3" d="m315.52,15.4c.06-3.04.1-6.13.1-9.23v-.44h-4.75v.43c.01,3.17,0,6.25-.03,9.24h-6.15v4.47h6.09v5.94c0,9.04-1.55,13.66-5.08,19.02-2.1,3.28-5.95,5.49-5.95,5.49l3.54,3.43s12.06-6.31,12.06-26.12l.09-7.78h8.07c-.09,8.1-.38,16.07-.84,23.69-.08,2.38-1.09,3.5-3.18,3.5-1.76-.04-5.31-.05-5.31-.05.28,1.42.8,4.75.8,4.75h5.69c4.02-.07,6.25-2.47,6.61-7.17.41-7.22.72-16.9.95-28.73v-.46s-12.7,0-12.7,0Z"/>
          </g>
        </g>
        <g>
          <g>
            <path class="cls-3" d="m167.91,71.89c-.62-.5-1.3-.85-2.03-1.06-1.41-.37-2.88-.37-4.11-.03-.59.15-1.16.37-1.67.64-.52.26-1,.6-1.43.98-.19.19-.4.37-.56.56v-11.46h-3.68v28.36h3.68v-13.14c.63-.89,1.4-1.62,2.26-2.14.89-.53,1.82-.8,2.79-.8,1.15,0,1.95.32,2.44.97.5.66.76,1.71.76,3.09v12.02h3.67v-12.5c0-1.37-.19-2.51-.58-3.38-.39-.89-.9-1.59-1.54-2.1Z"/>
            <rect class="cls-3" x="173.99" y="63.49" width="3.68" height="4.03"/>
            <rect class="cls-3" x="173.99" y="71.02" width="3.68" height="18.85"/>
            <path class="cls-3" d="m195.38,72.1c-.57-.54-1.26-.96-2.04-1.2-1.39-.43-3.11-.46-4.46-.11-.62.15-1.19.37-1.71.67-.52.28-1,.61-1.41,1-.25.22-.49.47-.72.72l-.48-2.15h-2.94v18.85h3.67v-13.14c.65-.89,1.42-1.62,2.3-2.14.89-.53,1.83-.8,2.77-.8,1.06,0,1.84.3,2.37.91.55.62.81,1.67.81,3.15v12.02h3.68v-12.5c0-1.22-.17-2.3-.48-3.15-.34-.86-.8-1.58-1.36-2.12Z"/>
            <path class="cls-3" d="m214.56,74.3c-.53-1.13-1.43-2.05-2.65-2.74-1.22-.67-2.78-1.01-4.67-1.01-.52,0-1.05.03-1.56.08-.53.06-1.03.13-1.5.22-.47.1-.92.21-1.34.36-.44.14-.81.29-1.13.45l-.2.09v3.22l.49-.19c.78-.29,1.58-.52,2.37-.69.78-.16,1.62-.26,2.51-.26,1.16,0,2.09.19,2.77.55.65.37,1.14.84,1.43,1.38.14.25.24.56.29.9.06.37.09.79.09,1.26v.78c-.54-.18-1.15-.32-1.79-.45-.82-.15-1.72-.24-2.68-.25-1.03,0-1.97.14-2.83.41-.85.29-1.6.69-2.23,1.22-.62.52-1.11,1.18-1.45,1.93-.34.75-.52,1.62-.52,2.58s.16,1.82.47,2.59c.31.77.76,1.43,1.31,1.96.57.53,1.24.95,2.02,1.23.76.27,1.62.41,2.54.41.67,0,1.32-.08,1.91-.23.6-.14,1.15-.34,1.65-.58.51-.24.96-.54,1.34-.84.2-.16.37-.31.53-.47l.27,1.64h3.15v-12.47c0-.6-.05-1.16-.14-1.66-.08-.52-.23-1.01-.44-1.45Zm-3.1,7.53v3.2c-.13.13-.31.29-.53.47-.28.25-.63.49-1.04.73-.4.24-.87.46-1.38.63-.88.3-1.99.36-2.91.08-.37-.12-.71-.3-.97-.54-.26-.24-.48-.55-.64-.91-.16-.37-.24-.83-.24-1.33,0-1,.31-1.71.92-2.18.65-.49,1.57-.73,2.73-.73.87,0,1.69.08,2.41.22.62.12,1.17.23,1.65.36Z"/>
            <path class="cls-3" d="m147.38,81.59c-1.82,3.08-5.13,4.98-8.68,4.98-5.55,0-10.06-4.51-10.06-10.07s4.52-10.05,10.06-10.05c3.53,0,6.84,1.88,8.65,4.93l.11.18h3.9l-.22-.5c-2.18-4.94-7.06-8.13-12.45-8.13-7.49,0-13.59,6.1-13.59,13.59s6.1,13.6,13.59,13.6c5.41,0,10.31-3.21,12.46-8.18l.22-.5h-3.91l-.1.16Z"/>
          </g>
          <g>
            <path class="cls-3" d="m241.5,78.28c-.53,1.26-1.21,2.99-1.99,5.19-.71-1.98-1.38-3.72-1.99-5.18l-6.1-14.67h-5.09v26.25h3.83v-12.71c0-2.44-.07-5.1-.19-7.94.69,1.83,1.38,3.55,2.05,5.17l6.53,15.47h1.9l6.52-15.47c.65-1.52,1.34-3.25,2.05-5.17-.12,2.88-.18,5.55-.18,7.94v12.71h3.82v-26.25h-5.09l-6.1,14.66Z"/>
            <path class="cls-3" d="m292.98,74.3c-.43-.71-.93-1.31-1.49-1.79-.55-.48-1.14-.87-1.75-1.16-.59-.3-1.22-.51-1.84-.62-.61-.12-1.19-.18-1.72-.18-1.15,0-2.19.2-3.11.6-.66.3-1.28.69-1.83,1.15v-10.78h-3.67v28.36h2.85l.51-1.67c.06.06.12.12.18.19.27.31.62.59,1.06.89.44.29.98.54,1.59.75.63.2,1.36.31,2.17.31,1.07,0,2.13-.21,3.14-.62,1.01-.41,1.91-1.05,2.7-1.89.78-.84,1.42-1.91,1.89-3.19.47-1.25.71-2.79.71-4.51,0-1.24-.13-2.35-.38-3.32-.25-.96-.58-1.81-1.01-2.51Zm-2.42,6.07c0,1.02-.12,1.95-.34,2.78-.21.83-.54,1.55-.97,2.14-.4.58-.93,1.03-1.54,1.35-.62.31-1.35.47-2.16.47-.54,0-1.05-.08-1.5-.24-.45-.16-.88-.37-1.25-.6-.37-.23-.7-.48-.96-.76-.24-.23-.44-.45-.59-.66v-9.21c.57-.54,1.22-.98,1.94-1.31,1.25-.6,2.71-.73,4.12-.27.54.17,1.06.48,1.55.95.48.46.89,1.12,1.21,1.97.32.85.48,1.99.48,3.37Z"/>
            <rect class="cls-3" x="297.27" y="71.02" width="3.68" height="18.85"/>
            <rect class="cls-3" x="297.27" y="63.49" width="3.68" height="4.03"/>
            <rect class="cls-3" x="305.09" y="61.51" width="3.67" height="28.36"/>
            <path class="cls-3" d="m327.29,75.69c-.38-1.18-.92-2.16-1.6-2.93-.69-.77-1.5-1.33-2.43-1.69-1.91-.72-4.22-.71-6.23.11-1.03.43-1.95,1.07-2.75,1.92-.79.84-1.43,1.92-1.91,3.16-.46,1.25-.7,2.75-.7,4.44s.25,3.21.74,4.43c.48,1.24,1.18,2.25,2.04,3.02.87.77,1.91,1.34,3.11,1.68,1.16.35,2.42.52,3.75.52,1.1,0,2.16-.09,3.13-.28.99-.19,1.82-.46,2.51-.78l.19-.1v-3.18l-.47.16c-.79.28-1.58.51-2.37.66-.77.16-1.65.24-2.6.24s-1.77-.12-2.54-.33c-.76-.22-1.44-.56-1.99-1.04-.57-.46-1.01-1.07-1.34-1.82-.29-.69-.45-1.5-.48-2.45h12.5v-.35c.03-.39.03-.64.03-.75v-.39c0-1.64-.2-3.06-.59-4.24Zm-11.76,2.47c.09-.53.23-1.01.43-1.48.26-.57.58-1.07,1-1.51.4-.42.88-.77,1.43-1.01,1.07-.49,2.48-.48,3.43-.01.49.23.89.57,1.21.98.33.43.59.93.75,1.5.15.48.22.99.26,1.54h-8.52Z"/>
            <path class="cls-3" d="m265.15,70.49c-5.45,0-9.87,4.42-9.87,9.87s4.42,9.88,9.87,9.88,9.88-4.42,9.88-9.88-4.42-9.87-9.88-9.87Zm0,16.53c-3.68,0-6.66-2.98-6.66-6.67s2.98-6.66,6.66-6.66,6.66,2.98,6.66,6.66-2.98,6.67-6.66,6.67Z"/>
          </g>
        </g>
      </g>
      <g>
        <path class="cls-11" d="m364.34,97.66V4.28c0-.7.17-1.4.52-2.06.35-.66.85-1.19,1.43-1.57l.98-.65v95.75c0,.49-.19.98-.56,1.35-.37.37-.86.56-1.35.56h-1.02Z"/>
        <path class="cls-1" d="m368.74,3.63v93.38c0,.7-.17,1.4-.52,2.06s-.85,1.18-1.43,1.57l-.98.65V5.54c0-.49.19-.98.56-1.35.37-.37.87-.56,1.35-.56h1.02Z"/>
      </g>
      <g>
        <g>
          <path class="cls-9" d="m460.23,67.57l7.96-7.7c1.68-1.62,1.68-4.31,0-5.94l-5.03-4.87,23.84-23.08c3.91-3.79,10.12-3.79,14.04,0l23.84,23.08h-.01s0,.01,0,.01c6.14,5.95,15.9,5.95,22.04,0h.01s-45.88-44.43-45.88-44.43c-3.91-3.79-10.12-3.79-14.04,0l-45.88,44.42,19.12,18.51Z"/>
          <path class="cls-10" d="m507.82,70.75l-6.86,6.64c-2.71,2.63-7.03,2.63-9.74,0h0s-10.43,10.09-10.43,10.09l12.42,12.03c1.6,1.55,4.14,1.55,5.75,0l29.71-28.76h0c-5.81-5.63-15.04-5.63-20.85,0Z"/>
          <path class="cls-8" d="m444.36,30.54l6.86-6.64c2.71-2.63,7.03-2.63,9.74,0h0s10.43-10.09,10.43-10.09l-12.42-12.03c-1.6-1.55-4.14-1.55-5.75,0l-29.71,28.76h0c5.81,5.63,15.04,5.63,20.85,0Z"/>
          <path class="cls-7" d="m491.94,33.72l-7.96,7.7c-1.68,1.62-1.68,4.31,0,5.94l5.03,4.87-23.84,23.08c-3.91,3.79-10.12,3.79-14.04,0l-23.84-23.08h.01s0-.01,0-.01c-6.14-5.95-15.9-5.95-22.04,0h-.01s45.88,44.43,45.88,44.43c3.91,3.79,10.12,3.79,14.04,0l45.88-44.42-19.12-18.51Z"/>
          <path class="cls-12" d="m468.19,59.87c1.68-1.62,1.68-4.31,0-5.94l-5.03-4.87,23.84-23.08c1.68-1.63,6.65-4.86,12.57-1.18,0,0-10-20.26-24.58-8.52-1.39,1.11-7.73,7.48-9.1,8.81l-3.1,3c-.92.89-1.84,1.78-2.76,2.67l-3.02,2.92c-.71.69-1.41,1.36-2.1,2.03l-1.25,1.21c-1.47,1.43-2.88,2.79-4.19,4.06l-3.49,3.37c-.31.3-.61.59-.9.87l-1.99,1.93c-.24.23-.46.45-.66.64l-.94.91c-.13.12-.22.21-.28.27l-.08.08,19.12,18.51,7.96-7.7Z"/>
          <path class="cls-4" d="m483.98,41.42c-1.68,1.62-1.68,4.31,0,5.94l5.03,4.87-23.84,23.08c-1.68,1.63-6.65,4.86-12.57,1.18,0,0,10,20.26,24.58,8.52,1.39-1.11,7.73-7.48,9.1-8.81l3.1-3c.92-.89,1.84-1.78,2.76-2.67l3.02-2.92c.71-.69,1.41-1.36,2.1-2.03l1.25-1.21c1.47-1.43,2.88-2.79,4.19-4.06l3.49-3.37c.31-.3.61-.59.9-.87l1.99-1.93c.24-.23.46-.45.66-.64l.94-.91c.13-.12.22-.21.28-.27l.08-.08-19.12-18.51-7.96,7.7Z"/>
        </g>
        <g>
          <path class="cls-6" d="m573.56,58.86v-.87h2.58v2.06h-1.41v4.16h1.98v1.19h-1.98v4.78h1.98v1.17h-1.98v9.61h-2.85v-15.56h-6.22v-1.19h6.22v-4.16h-6.22v-1.19h7.9Zm-6.52,8.07h2.17l-.54,14.04h-2.17l.54-14.04Zm16.02-4.4l1.17,5.11h3.4v-7.33h-9.18v-2.31h3.1v1.11h8.99v9.7h-12.74v-1.17h3.53l-.9-3.94h-2.39v-1.17h5.02Zm0,11.9l1.14,5.08h3.42v-7.28h-9.18v-2.31h3.1v1.11h8.99v9.67h-12.74v-1.19h3.5l-.87-3.88h-2.39v-1.19h5.02Z"/>
          <path class="cls-6" d="m604.3,58.26v1.19h-11.49v-1.19h11.49Zm0,5.95v1.19h-6.33l-1.19,14.09h4.26v-10.46h2.61v11.65h-9.75v-1.19l1.19-14.09h-2.28v-1.19h11.49Zm3.01,15.29l.65-19.2h-2.55v-1.19h2.58l.05-1.11h2.85l-.05,1.11h6.87v21.59h-5.08v-1.19h2.23v-19.2h-4.05l-.68,20.4h-4.73v-1.19h1.9Z"/>
          <path class="cls-6" d="m628.49,61.68h2.25l.54-3.69h2.06l-.52,3.69h1.47v1.17h-5.81v5.62h-2.74v-5.62h-5.81v-1.17h1.41l-.49-3.69h2.06l.49,3.69h2.34v-3.69h2.74v3.69Zm-7.36,5.35l.24-3.07h2.06l-.33,4.26h-3.18v-1.19h1.19Zm.68,12.49l3.12-1.79-3.56-2.04v-3.91h-1.44v-1.17h1.44v-1.03h2.8v1.03h5.87v-1.03h2.8v1.03h1.47v1.17h-1.47v3.88l-3.61,2.09,3.1,1.77h1.98v1.17h-4.16l-3.04-1.71-3.01,1.71h-4.16v-1.17h1.87Zm8.23-4.72v-3.02h-5.87v3.07l2.88,1.66,2.99-1.71Zm2.93-8.01h1.25v1.17h-3.23l-.33-4.26h2.09l.22,3.1Zm7.44.54l1.71-5.51h2.5l-2.96,9.53,2.53,8.15h1.33v1.19h-3.48l-1.66-5.3-1.63,5.3h-3.5v-1.19h1.36l2.53-8.12-2.96-9.56h2.52l1.71,5.51Zm-1.93-8.23h7.03v1.19h-9.7v-2.31h2.66v1.11Z"/>
          <path class="cls-6" d="m665.7,79.5v-6.87h-18.58v-1.17h16.48l3.31-5.21h-18.96v-1.17h22.24v1.17l-3.29,5.21h5.73v1.17h-4.05v8.07h-20.64v-1.19h17.73Zm-4.34-20.4h10.67v3.99h-2.85v-2.8h-18.6v2.8h-2.85v-3.99h10.7v-1.11h2.93v1.11Z"/>
          <path class="cls-6" d="m681.91,58.26v1.19h-2.42v21.51h-2.85v-21.51h-2.39v-1.19h7.66Zm3.34,2.34v-2.61h2.85v2.39l11.68-.9v1.22l-11.68.9v17.9h11.73v1.19h-14.58v-18.87l-2.06.16v-1.22l2.06-.16Z"/>
          <path class="cls-6" d="m704.62,79.5l7.9-19.2h-10.56v-1.19h10.78v-1.11h2.93v1.11h10.94v1.19h-10.7l7.85,19.2h3.21v1.19h-5.73l-6.98-17.19-7.06,17.19h-5.76v-1.19h3.18Z"/>
          <path class="cls-6" d="m730.17,63.36l.68-5.11h20.86l.81,5.11h1.6v1.19h-4.48l-.82-5.11h-15.07l-.71,5.11h-4.45v-1.19h1.57Zm23.76,8.04v1.19h-19.53l-1.14,6.9h16.92l-.33-4.75h2.8l.38,5.95h-22.73v-1.19l1.14-6.9h-2.63v-1.19h25.12Zm-.24-4.89v1.19h-24.63v-1.19h24.63Z"/>
        </g>
        <g>
          <path class="cls-2" d="m565.65,43.39v-25.54c0-1.63.48-2.95,1.44-3.96.96-1.01,2.18-1.51,3.66-1.51h35.4v2.76h-32.03c-1.16,0-1.73.59-1.73,1.77v27.42c0,1.22.58,1.83,1.73,1.83h32.03v2.76h-35.4c-1.48,0-2.7-.53-3.66-1.59-.96-1.06-1.44-2.37-1.44-3.93Z"/>
          <path class="cls-2" d="m614.97,12.37h8.48l11.8,13.86,11.8-13.86h8.43v36.54h-6.74v-27.73l-11.03,13.08h-4.91l-11.08-13.08v27.73h-6.74V12.37Z"/>
          <path class="cls-2" d="m664.3,48.91V12.37h32.08c1.45,0,2.86.38,4.24,1.15,2.79,1.57,4.19,4.22,4.19,7.98v18.24c0,3.79-1.4,6.46-4.19,8.03-1.38.77-2.79,1.15-4.24,1.15h-32.08Zm28.71-2.76c1.44,0,2.65-.5,3.61-1.51.96-1.01,1.45-2.33,1.45-3.96v-20.12c0-1.67-.47-2.99-1.4-3.96-.93-.97-2.15-1.46-3.66-1.46h-21.96v31.01h21.96Z"/>
          <path class="cls-2" d="m713.62,43.39v-25.54c0-1.63.48-2.95,1.44-3.96.96-1.01,2.18-1.51,3.66-1.51h35.4v2.76h-32.03c-1.16,0-1.73.59-1.73,1.77v27.42c0,1.22.58,1.83,1.73,1.83h32.03v2.76h-35.4c-1.48,0-2.7-.53-3.66-1.59-.96-1.06-1.44-2.37-1.44-3.93Z"/>
        </g>
        <g>
          <path class="cls-6" d="m570.25,90.11l.79.18c-.38,1.31-1.26,1.98-2.63,2-1.73-.1-2.65-1.1-2.75-2.99.08-2.06,1.02-3.13,2.81-3.24,1.15.04,1.97.63,2.45,1.75l-.76.18c-.36-.87-.95-1.31-1.75-1.33-1.23.12-1.91.98-2.03,2.57.08,1.55.75,2.39,2,2.51.99-.04,1.61-.59,1.88-1.63Z"/>
          <path class="cls-6" d="m576.12,86.14h.67v6.05h-.67v-2.81h-3.39v2.81h-.7v-6.05h.7v2.63h3.39v-2.63Z"/>
          <path class="cls-6" d="m578.23,92.19v-6.05h.67v6.05h-.67Z"/>
          <path class="cls-6" d="m585.07,92.19h-.76l-3.15-4.84c-.1-.16-.19-.36-.27-.61h-.03c.06.24.09.58.09,1v4.45h-.67v-6.05h.79l3.12,4.87c.12.2.2.36.24.48h.03c-.04-.3-.06-.62-.06-.94v-4.42h.67v6.05Z"/>
          <path class="cls-6" d="m590.69,92.19l-.76-1.84h-2.75l-.73,1.84h-.73l2.45-6.05h.73l2.51,6.05h-.73Zm-3.27-2.42h2.27l-1-2.57c-.02-.1-.06-.24-.12-.42-.06.18-.11.32-.15.42l-1,2.57Z"/>
          <path class="cls-6" d="m599.34,92.19v-4.26c0-.1.03-.4.09-.91.02-.16.03-.27.03-.33l-.03-.03c-.06.32-.13.59-.21.79l-1.94,4.75h-.39l-1.91-4.78c-.08-.32-.14-.57-.18-.76l-.03.03c.04.52.06.95.06,1.27v4.23h-.64v-6.05h.91l1.75,4.39c.08.24.16.52.24.85h.03c.06-.28.14-.56.24-.82l1.75-4.42h.91v6.05h-.69Z"/>
          <path class="cls-6" d="m603.91,92.28c-1.84-.1-2.79-1.1-2.87-2.99.08-2.06,1.07-3.13,2.96-3.24,1.79.12,2.75,1.18,2.87,3.18-.08,1.96-1.07,2.97-2.96,3.05Zm.03-5.63c-1.33.12-2.07.98-2.21,2.57.08,1.55.8,2.39,2.15,2.51,1.41-.08,2.16-.92,2.24-2.51-.12-1.59-.85-2.45-2.18-2.57Z"/>
          <path class="cls-6" d="m610.35,92.19h-2.51v-6.05h2.36c1.21.06,1.85.57,1.94,1.51-.06.75-.46,1.19-1.21,1.33v.03c.91.14,1.39.66,1.45,1.54-.06,1.05-.74,1.59-2.03,1.63Zm-.3-5.44h-1.57v2.03h1.57c.83-.04,1.28-.4,1.36-1.09-.04-.6-.49-.92-1.36-.94Zm.09,2.63h-1.66v2.27h1.78c.95,0,1.42-.39,1.42-1.18-.06-.68-.57-1.05-1.54-1.09Z"/>
          <path class="cls-6" d="m613.62,92.19v-6.05h.67v6.05h-.67Z"/>
          <path class="cls-6" d="m619.46,92.19h-3.81v-6.05h.69v5.5h3.12v.54Z"/>
          <path class="cls-6" d="m621.12,91.65h3.84v.54h-4.54v-6.05h4.36v.58h-3.66v2.06h3.45v.61h-3.45v2.27Z"/>
          <path class="cls-6" d="m630.25,92.19h-2.06v-6.05h2.12c1.88.06,2.84,1.07,2.9,3.02.04,2.06-.95,3.06-2.96,3.02Zm.03-5.44h-1.42v4.93h1.39c1.53-.02,2.29-.85,2.27-2.48-.06-1.57-.81-2.39-2.24-2.45Z"/>
          <path class="cls-6" d="m634.39,92.19v-6.05h.67v6.05h-.67Z"/>
          <path class="cls-6" d="m639.26,89.08h2.6v2.21c-.5.67-1.37,1-2.6,1-1.9-.1-2.89-1.11-2.99-3.02.08-2.06,1.04-3.13,2.87-3.21,1.35.02,2.25.62,2.69,1.79l-.76.18c-.32-.89-.98-1.34-1.97-1.36-1.29.12-2,.98-2.12,2.57.1,1.55.85,2.39,2.24,2.51.91,0,1.56-.24,1.97-.73v-1.36h-1.94v-.58Z"/>
          <path class="cls-6" d="m643.13,92.19v-6.05h.67v6.05h-.67Z"/>
          <path class="cls-6" d="m649.58,86.14v.58h-2.06v5.47h-.69v-5.47h-2.06v-.58h4.81Z"/>
          <path class="cls-6" d="m654.69,92.19l-.76-1.84h-2.75l-.73,1.84h-.73l2.45-6.05h.73l2.51,6.05h-.73Zm-3.27-2.42h2.27l-1-2.57c-.02-.1-.06-.24-.12-.42-.06.18-.11.32-.15.42l-1,2.57Z"/>
          <path class="cls-6" d="m659.83,92.19h-3.81v-6.05h.69v5.5h3.12v.54Z"/>
          <path class="cls-6" d="m660.92,92.19v-6.05h.67v6.05h-.67Z"/>
          <path class="cls-6" d="m667.18,86.57l-3.78,5.11h3.9v.51h-4.81v-.3l3.78-5.14h-3.42v-.61h4.32v.42Z"/>
          <path class="cls-6" d="m672.47,92.19l-.76-1.84h-2.75l-.73,1.84h-.73l2.45-6.05h.73l2.51,6.05h-.73Zm-3.27-2.42h2.27l-1-2.57c-.02-.1-.06-.24-.12-.42-.06.18-.11.32-.15.42l-1,2.57Z"/>
          <path class="cls-6" d="m678.22,86.14v.58h-2.06v5.47h-.69v-5.47h-2.06v-.58h4.81Z"/>
          <path class="cls-6" d="m679.15,92.19v-6.05h.67v6.05h-.67Z"/>
          <path class="cls-6" d="m683.87,92.28c-1.84-.1-2.79-1.1-2.87-2.99.08-2.06,1.07-3.13,2.96-3.24,1.79.12,2.75,1.18,2.87,3.18-.08,1.96-1.07,2.97-2.96,3.05Zm.03-5.63c-1.33.12-2.07.98-2.21,2.57.08,1.55.8,2.39,2.15,2.51,1.41-.08,2.16-.92,2.24-2.51-.12-1.59-.85-2.45-2.18-2.57Z"/>
          <path class="cls-6" d="m692.58,92.19h-.76l-3.15-4.84c-.1-.16-.19-.36-.27-.61h-.03c.06.24.09.58.09,1v4.45h-.67v-6.05h.79l3.12,4.87c.12.2.2.36.24.48h.03c-.04-.3-.06-.62-.06-.94v-4.42h.67v6.05Z"/>
          <path class="cls-6" d="m700.42,90.11l.79.18c-.38,1.31-1.26,1.98-2.63,2-1.73-.1-2.65-1.1-2.75-2.99.08-2.06,1.02-3.13,2.81-3.24,1.15.04,1.97.63,2.45,1.75l-.76.18c-.36-.87-.95-1.31-1.75-1.33-1.23.12-1.91.98-2.03,2.57.08,1.55.75,2.39,2,2.51.99-.04,1.61-.59,1.88-1.63Z"/>
          <path class="cls-6" d="m704.83,92.28c-1.84-.1-2.79-1.1-2.87-2.99.08-2.06,1.07-3.13,2.96-3.24,1.79.12,2.75,1.18,2.87,3.18-.08,1.96-1.07,2.97-2.96,3.05Zm.03-5.63c-1.33.12-2.07.98-2.21,2.57.08,1.55.8,2.39,2.15,2.51,1.41-.08,2.16-.92,2.24-2.51-.12-1.59-.85-2.45-2.18-2.57Z"/>
          <path class="cls-6" d="m713.54,92.19h-.76l-3.15-4.84c-.1-.16-.19-.36-.27-.61h-.03c.06.24.09.58.09,1v4.45h-.67v-6.05h.79l3.12,4.87c.12.2.2.36.24.48h.03c-.04-.3-.06-.62-.06-.94v-4.42h.67v6.05Z"/>
          <path class="cls-6" d="m718.98,86.75h-3.42v2.03h2.96l.03.61h-2.99v2.81h-.67v-6.05h4.08v.61Z"/>
          <path class="cls-6" d="m720.74,91.65h3.84v.54h-4.54v-6.05h4.36v.58h-3.66v2.06h3.45v.61h-3.45v2.27Z"/>
          <path class="cls-6" d="m730.99,92.19h-.94l-2.09-2.72h-1.6v2.72h-.7v-6.05h2.81c1.29.06,1.98.61,2.06,1.63,0,1.05-.61,1.61-1.82,1.69l2.27,2.72Zm-4.63-5.44v2.12h1.97c.99-.02,1.48-.39,1.48-1.12-.02-.65-.51-.98-1.48-1h-1.97Z"/>
          <path class="cls-6" d="m732.44,91.65h3.84v.54h-4.54v-6.05h4.36v.58h-3.66v2.06h3.45v.61h-3.45v2.27Z"/>
          <path class="cls-6" d="m742.12,92.19h-.76l-3.15-4.84c-.1-.16-.19-.36-.27-.61h-.03c.06.24.09.58.09,1v4.45h-.67v-6.05h.79l3.12,4.87c.12.2.2.36.24.48h.03c-.04-.3-.06-.62-.06-.94v-4.42h.67v6.05Z"/>
          <path class="cls-6" d="m747.81,90.11l.79.18c-.38,1.31-1.26,1.98-2.63,2-1.73-.1-2.65-1.1-2.75-2.99.08-2.06,1.02-3.13,2.81-3.24,1.15.04,1.97.63,2.45,1.75l-.76.18c-.36-.87-.95-1.31-1.75-1.33-1.23.12-1.91.98-2.03,2.57.08,1.55.75,2.39,2,2.51.99-.04,1.61-.59,1.88-1.63Z"/>
          <path class="cls-6" d="m750.29,91.65h3.84v.54h-4.54v-6.05h4.36v.58h-3.66v2.06h3.45v.61h-3.45v2.27Z"/>
        </g>
      </g>
    </g>
  </g>
</svg>