<?xml version="1.0" encoding="utf-8"?>
<!-- Generator: Adobe Illustrator 27.4.1, SVG Export Plug-In . SVG Version: 6.00 Build 0)  -->
<svg version="1.1" id="图层_1" xmlns="http://www.w3.org/2000/svg" xmlns:xlink="http://www.w3.org/1999/xlink" x="0px" y="0px"
	 viewBox="0 0 724 97" style="enable-background:new 0 0 724 97;" xml:space="preserve">
<style type="text/css">
	.st0{fill:#8DC21F;}
	.st1{fill:#0084CF;}
	.st2{fill:url(#SVGID_1_);}
	.st3{fill:url(#SVGID_00000027580673423667733820000007401936508341005456_);}
	.st4{fill:url(#SVGID_00000119797386968762079600000004812955528646094511_);}
	.st5{fill:url(#SVGID_00000140703067845089074970000005641694833420691880_);}
	.st6{fill:url(#SVGID_00000139286538472882768670000013878337802732207493_);}
	.st7{fill:url(#SVGID_00000076564430672791789760000010218476045596812464_);}
	.st8{fill:url(#SVGID_00000096030753060140034740000014518318515945415573_);}
	.st9{fill:url(#SVGID_00000136390129196043220300000004047755526820012446_);}
	.st10{fill:#3D3A39;}
	.st11{fill:#1C2A54;}
	.st12{fill:#3E3A39;}
</style>
<g>
	<g>
		<g>
			<path class="st0" d="M95.8,59.8c-8.7-11.5-21.6-23.2-25.2-26.1c-2.5-2-5-3.1-7.5-3c-2.5,0-4.8,1-7,2.9c-0.4,0.4-1,0.9-1.8,1.6
				c-5.1,4.3-21.1,19-21.4,19.3c-1.2,1.1-2.8,1.9-4.5,1.8c-1.5-0.1-3.2-0.7-4.9-2.3c-1.2-1.1-6.6-5.4-13-12.5
				c-3.9-4.4-7.1-8.3-7.1-8.3s-0.7,1.5-1.1,2.5c-0.3,0.9,0,1.4,0.1,1.6c2.1,3,11.8,14.6,25.2,26.2c2.4,2.1,5,3.1,7.5,3
				c2.5,0,4.9-1,7-2.9c0.4-0.4,1-0.9,1.8-1.6c5.1-4.3,14.8-13.2,19.4-17.4c1-0.9,1.7-1.5,2.1-1.9c1.2-1.1,2.8-1.9,4.5-1.8
				c1.5,0.1,3.1,0.8,4.9,2.3c2.9,2.4,7.5,6.7,13,12.5c4,4.3,7.1,8.2,7.1,8.3c0,0,0.8-1.5,1.1-2.6C96.2,60.5,96,60,95.8,59.8z"/>
			<g>
				<g>
					<path class="st1" d="M44.3,17.6C39.8,20.9,21.4,38,17.8,42.1c0,0,2.6,2.9,6.5,6.1c1,0.9,2.2,0.7,3.3-0.4
						c7.1-7.1,21.6-19.9,23.5-21.5c5.5-4.6,11.8-5,17.6-0.7C82.8,36.2,95.3,52.9,97.5,56c0,0,0.3-1.5,0.5-2.9c0-0.1,0.3-1.3-0.4-2.4
						c-13.3-19.1-27.4-31-32.8-33.9C58.6,13.4,51.4,12.4,44.3,17.6z"/>
					<path class="st1" d="M29.4,7.6C20.3,15,8.6,25.8,5.6,29c0,0,2.2,2.8,5.7,6.2c0.7,0.6,1.4,0.4,2-0.2c9-8.7,18.8-17.6,24.4-21.9
						c9.5-7.4,20.7-8.1,31.7,0.6c4.1,3.3,7.7,6.5,12.9,11.9C89,32.9,93.4,39.1,98.2,46c0,0,0-1.8-0.6-4.3c-0.1-0.4-0.3-1.1-0.6-1.7
						c-1-1.9-5.2-9.2-11.4-16.4C73.5,9.3,65.7,4.9,60.8,2.3C54.2-1.1,41.4-2.1,29.4,7.6z"/>
				</g>
				<g>
					<path class="st1" d="M53.9,79.4c4.5-3.3,22.9-20.4,26.5-24.5c0,0-2.6-2.9-6.5-6.1c-1-0.9-2.2-0.7-3.3,0.4
						c-7.1,7.1-21.6,19.9-23.5,21.5c-5.5,4.6-11.8,5-17.6,0.7C15.4,60.8,2.9,44.1,0.7,41c0,0-0.3,1.5-0.5,2.9c0,0.1-0.3,1.3,0.4,2.4
						c13.3,19.1,27.4,31,32.8,33.9C39.6,83.6,46.8,84.6,53.9,79.4z"/>
					<path class="st1" d="M68.8,89.4C77.9,82,89.6,71.2,92.6,68c0,0-2.2-2.8-5.7-6.2c-0.7-0.6-1.4-0.4-2,0.2
						c-9,8.7-18.8,17.6-24.4,21.9C51,91.3,39.8,92,28.9,83.3c-4.1-3.2-7.7-6.5-12.9-11.9C9.2,64.1,4.8,57.9,0,51c0,0,0,1.8,0.6,4.3
						c0.1,0.4,0.3,1.1,0.6,1.7c1,1.9,5.2,9.2,11.4,16.4c12.2,14.3,20,18.6,24.9,21.2C44,98.1,56.8,99.1,68.8,89.4z"/>
				</g>
			</g>
		</g>
		<g>
			<path class="st1" d="M142.3,5.3h-4.7v8.6h-17.4v24h17.4v13h4.7v-13h17.6v-24h-17.6V5.3z M137.6,18v15.6h-12.9V18H137.6z
				 M155.3,18v15.6h-13.1V18H155.3z"/>
			<path class="st1" d="M197.5,28.7l-3.2,2.4l0.3,0.3c1.3,1.4,3,3.4,4.4,5.3l0.3,0.3l3.4-2.6l-0.3-0.3c-1.2-1.5-3-3.5-4.6-5.2
				L197.5,28.7z"/>
			<polygon class="st1" points="204.3,37.8 193,37.8 193,28.4 202.7,28.4 202.7,24.4 193,24.4 193,18.5 203.6,18.5 203.6,14.6 
				178.2,14.6 178.2,18.5 188.8,18.5 188.8,24.4 179.1,24.4 179.1,28.4 188.8,28.4 188.8,37.8 177.5,37.8 177.5,41.7 204.3,41.7 			
				"/>
			<path class="st1" d="M170.7,49.7l40.5,0V6.9h-40.5V49.7z M206.8,11v34.6H175V11H206.8z"/>
			<path class="st1" d="M238.7,31.6c-2-1.7-7.3-6.1-7.3-6.1v-2.3h6.3v-4.1h-6.3v-6.6c4.4-0.7,6.4-1.3,6.4-1.3l-0.9-4.2
				c0,0-4,1-8,1.6c-5.2,0.7-8.3,1-8.3,1l0.5,4.1c0,0,3.5-0.4,6.1-0.8v6.2h-7.2v4.1h6.5c-1.8,5.5-4.4,10.7-7.4,14.9
				c0,0,3.1,3.3,3.1,3.3c1.9-2.6,3.5-5.6,4.9-8.8v18.2h4.2v-20c1.6,1.4,3,2.7,4.3,4l0.3,0.3l3-3.3L238.7,31.6z"/>
			<path class="st1" d="M253.5,28.3c0.7-1,1.1-2.1,1.1-2.1l-4.2-0.7c0.8-0.4,1.6-0.9,2.3-1.4c5-3.2,8.5-7,10.7-11.2l0.1-0.1V9.1
				h-14.7c0.5-0.7,0.9-1.5,1.3-2.3l0.2-0.4l-4-1.5l-0.2,0.3c-2.3,4.6-5.5,8.6-9.8,12.1c0,0,2.2,1.7,3.5,2.6c2.5-2.3,4.6-4.5,6.2-6.7
				h12.3c-2.2,2.8-4.3,5.1-6.8,6.8c-1.6-1.4-3-2.6-5.1-4.2l-0.3-0.2l-2.7,2.9l0.3,0.3c1.9,1.5,2.9,2.5,4.2,3.7
				c-3.2,1.7-6.8,3.1-10.8,4.3c0,0,2.6,3.6,2.7,3.6c2.4-0.8,7.3-3,9.4-4c-2.8,5.5-8.9,9.9-13.1,12.2c0,0,1.8,2,3.3,3.1
				c6.8-3.1,11.4-9.1,11.4-9.1h9.3c-0.6,3.2-3.4,7.2-7.3,9.6c-1.6-1.5-3.1-3.1-4.9-4.7l-3,2.6c1.6,1.5,3.1,3.1,4.3,4.3
				c-6,2.6-13.9,2.9-13.9,2.9l1.7,3.6c0,0,23.3-0.6,28.1-18.5l0-3.9H253.5z"/>
			<rect x="273" y="9.6" class="st1" width="19" height="4.2"/>
			<g>
				<path class="st1" d="M292.8,42.3c-1.4-3.3-3.4-8-5-11.4l-0.2-0.4l-3.9,1.7l0.2,0.4c1,2.3,2,4.4,2.9,6.7l-10,2.4
					c2.2-3.6,5-11.8,6.5-16.1h10.6v-4.2h-22.7v4.2h7.5c-0.4,2.4-3.1,10.3-6.6,16.8c-0.4,0.8-1.1,1.3-1.1,1.3l1.3,3
					c0,0,12.2-3.3,15.9-3.8l0.4,1.1L292.8,42.3z"/>
				<path class="st1" d="M302.9,14.7c0.1-2.9,0.1-5.9,0.1-8.9V5.4h-4.6v0.4c0,3,0,6,0,8.9h-5.9V19h5.8v5.7c0,8.7-1.5,13.1-4.9,18.3
					c-2,3.1-5.7,5.3-5.7,5.3l3.4,3.3c0,0,11.6-6.1,11.6-25.1l0.1-7.5h7.8c-0.1,7.8-0.4,15.4-0.8,22.7c-0.1,2.3-1,3.4-3.1,3.4
					c-1.7,0-5.1,0-5.1,0c0.3,1.4,0.8,4.6,0.8,4.6s3.6,0,5.5,0l0,0c3.9-0.1,6-2.4,6.3-6.9c0.4-6.9,0.7-16.2,0.9-27.6l0-0.4H302.9z"/>
			</g>
		</g>
		<g>
			<g>
				<path class="st1" d="M161.2,68.9c-0.6-0.5-1.3-0.8-1.9-1c-1.4-0.4-2.8-0.4-3.9,0c-0.6,0.1-1.1,0.4-1.6,0.6
					c-0.5,0.3-1,0.6-1.4,0.9c-0.2,0.2-0.4,0.4-0.5,0.5v-11h-3.5v27.2h3.5V73.5c0.6-0.9,1.3-1.6,2.2-2.1c0.9-0.5,1.8-0.8,2.7-0.8
					c1.1,0,1.9,0.3,2.3,0.9c0.5,0.6,0.7,1.6,0.7,3v11.5h3.5v-12c0-1.3-0.2-2.4-0.6-3.2C162.3,70.1,161.8,69.4,161.2,68.9z"/>
				<rect x="167" y="60.8" class="st1" width="3.5" height="3.9"/>
				<rect x="167" y="68.1" class="st1" width="3.5" height="18.1"/>
				<path class="st1" d="M187.6,69.1c-0.5-0.5-1.2-0.9-2-1.2c-1.3-0.4-3-0.4-4.3-0.1c-0.6,0.1-1.1,0.4-1.6,0.6c-0.5,0.3-1,0.6-1.4,1
					c-0.2,0.2-0.5,0.4-0.7,0.7l-0.5-2.1h-2.8v18.1h3.5V73.5c0.6-0.9,1.4-1.6,2.2-2.1c0.9-0.5,1.8-0.8,2.7-0.8c1,0,1.8,0.3,2.3,0.9
					c0.5,0.6,0.8,1.6,0.8,3v11.5h3.5v-12c0-1.2-0.2-2.2-0.5-3C188.6,70.3,188.1,69.6,187.6,69.1z"/>
				<path class="st1" d="M206,71.2c-0.5-1.1-1.4-2-2.5-2.6c-1.2-0.6-2.7-1-4.5-1c-0.5,0-1,0-1.5,0.1c-0.5,0.1-1,0.1-1.4,0.2
					c-0.4,0.1-0.9,0.2-1.3,0.3c-0.4,0.1-0.8,0.3-1.1,0.4l-0.2,0.1v3.1l0.5-0.2c0.8-0.3,1.5-0.5,2.3-0.7c0.8-0.2,1.6-0.2,2.4-0.2
					c1.1,0,2,0.2,2.7,0.5c0.6,0.4,1.1,0.8,1.4,1.3c0.1,0.2,0.2,0.5,0.3,0.9c0.1,0.4,0.1,0.8,0.1,1.2v0.8c-0.5-0.2-1.1-0.3-1.7-0.4
					c-0.8-0.1-1.7-0.2-2.6-0.2c-1,0-1.9,0.1-2.7,0.4c-0.8,0.3-1.5,0.7-2.1,1.2c-0.6,0.5-1.1,1.1-1.4,1.9c-0.3,0.7-0.5,1.6-0.5,2.5
					c0,0.9,0.2,1.8,0.4,2.5c0.3,0.7,0.7,1.4,1.3,1.9c0.5,0.5,1.2,0.9,1.9,1.2c0.7,0.3,1.6,0.4,2.4,0.4c0.6,0,1.3-0.1,1.8-0.2
					c0.6-0.1,1.1-0.3,1.6-0.6c0.5-0.2,0.9-0.5,1.3-0.8c0.2-0.1,0.4-0.3,0.5-0.5l0.3,1.6h3v-12c0-0.6,0-1.1-0.1-1.6
					C206.3,72.1,206.2,71.6,206,71.2z M203,78.4v3.1c-0.1,0.1-0.3,0.3-0.5,0.5c-0.3,0.2-0.6,0.5-1,0.7c-0.4,0.2-0.8,0.4-1.3,0.6
					c-0.8,0.3-1.9,0.3-2.8,0.1c-0.4-0.1-0.7-0.3-0.9-0.5c-0.3-0.2-0.5-0.5-0.6-0.9c-0.1-0.4-0.2-0.8-0.2-1.3c0-1,0.3-1.6,0.9-2.1
					c0.6-0.5,1.5-0.7,2.6-0.7c0.8,0,1.6,0.1,2.3,0.2C202,78.2,202.6,78.3,203,78.4z"/>
				<path class="st1" d="M141.5,78.2c-1.7,3-4.9,4.8-8.3,4.8c-5.3,0-9.7-4.3-9.7-9.7c0-5.3,4.3-9.7,9.7-9.7c3.4,0,6.6,1.8,8.3,4.7
					l0.1,0.2h3.7l-0.2-0.5c-2.1-4.7-6.8-7.8-11.9-7.8c-7.2,0-13,5.9-13,13c0,7.2,5.9,13.1,13,13.1c5.2,0,9.9-3.1,12-7.9l0.2-0.5
					h-3.8L141.5,78.2z"/>
			</g>
			<g>
				<path class="st1" d="M231.8,75c-0.5,1.2-1.2,2.9-1.9,5c-0.7-1.9-1.3-3.6-1.9-5L222.2,61h-4.9v25.2h3.7V74c0-2.3-0.1-4.9-0.2-7.6
					c0.7,1.8,1.3,3.4,2,5l6.3,14.9h1.8l6.3-14.9c0.6-1.5,1.3-3.1,2-5c-0.1,2.8-0.2,5.3-0.2,7.6v12.2h3.7V61h-4.9L231.8,75z"/>
				<path class="st1" d="M281.3,71.2c-0.4-0.7-0.9-1.3-1.4-1.7c-0.5-0.5-1.1-0.8-1.7-1.1c-0.6-0.3-1.2-0.5-1.8-0.6
					c-0.6-0.1-1.1-0.2-1.6-0.2c-1.1,0-2.1,0.2-3,0.6c-0.6,0.3-1.2,0.7-1.8,1.1V58.9h-3.5v27.2h2.7l0.5-1.6c0.1,0.1,0.1,0.1,0.2,0.2
					c0.3,0.3,0.6,0.6,1,0.9c0.4,0.3,0.9,0.5,1.5,0.7c0.6,0.2,1.3,0.3,2.1,0.3c1,0,2-0.2,3-0.6c1-0.4,1.8-1,2.6-1.8
					c0.7-0.8,1.4-1.8,1.8-3.1c0.5-1.2,0.7-2.7,0.7-4.3c0-1.2-0.1-2.3-0.4-3.2C282,72.7,281.7,71.9,281.3,71.2z M278.9,77
					c0,1-0.1,1.9-0.3,2.7c-0.2,0.8-0.5,1.5-0.9,2.1c-0.4,0.6-0.9,1-1.5,1.3c-0.6,0.3-1.3,0.5-2.1,0.5c-0.5,0-1-0.1-1.4-0.2
					c-0.4-0.2-0.8-0.4-1.2-0.6c-0.4-0.2-0.7-0.5-0.9-0.7c-0.2-0.2-0.4-0.4-0.6-0.6v-8.8c0.5-0.5,1.2-0.9,1.9-1.3
					c1.2-0.6,2.6-0.7,4-0.3c0.5,0.2,1,0.5,1.5,0.9c0.5,0.4,0.9,1.1,1.2,1.9C278.8,74.6,278.9,75.7,278.9,77z"/>
				<rect x="285.4" y="68.1" class="st1" width="3.5" height="18.1"/>
				<rect x="285.4" y="60.8" class="st1" width="3.5" height="3.9"/>
				<rect x="292.9" y="58.9" class="st1" width="3.5" height="27.2"/>
				<path class="st1" d="M314.2,72.5c-0.4-1.1-0.9-2.1-1.5-2.8c-0.7-0.7-1.4-1.3-2.3-1.6c-1.8-0.7-4.1-0.7-6,0.1
					c-1,0.4-1.9,1-2.6,1.8c-0.8,0.8-1.4,1.8-1.8,3c-0.4,1.2-0.7,2.6-0.7,4.3c0,1.6,0.2,3.1,0.7,4.3c0.5,1.2,1.1,2.2,2,2.9
					c0.8,0.7,1.8,1.3,3,1.6c1.1,0.3,2.3,0.5,3.6,0.5c1.1,0,2.1-0.1,3-0.3c0.9-0.2,1.8-0.4,2.4-0.8l0.2-0.1v-3.1l-0.5,0.2
					c-0.8,0.3-1.5,0.5-2.3,0.6c-0.7,0.1-1.6,0.2-2.5,0.2c-0.9,0-1.7-0.1-2.4-0.3c-0.7-0.2-1.4-0.5-1.9-1c-0.5-0.4-1-1-1.3-1.8
					c-0.3-0.7-0.4-1.4-0.5-2.4h12l0-0.3c0-0.4,0-0.6,0-0.7v-0.4C314.8,75,314.6,73.7,314.2,72.5z M302.9,74.9c0.1-0.5,0.2-1,0.4-1.4
					c0.2-0.6,0.6-1,1-1.4c0.4-0.4,0.8-0.7,1.4-1c1-0.5,2.4-0.5,3.3,0c0.5,0.2,0.9,0.5,1.2,0.9c0.3,0.4,0.6,0.9,0.7,1.4
					c0.1,0.5,0.2,1,0.2,1.5H302.9z"/>
				<path class="st1" d="M254.6,67.6c-5.2,0-9.5,4.2-9.5,9.5c0,5.2,4.2,9.5,9.5,9.5c5.2,0,9.5-4.2,9.5-9.5
					C264,71.8,259.8,67.6,254.6,67.6z M254.6,83.4c-3.5,0-6.4-2.9-6.4-6.4c0-3.5,2.9-6.4,6.4-6.4c3.5,0,6.4,2.9,6.4,6.4
					C261,80.6,258.1,83.4,254.6,83.4z"/>
			</g>
		</g>
	</g>
	<g>
		
			<linearGradient id="SVGID_1_" gradientUnits="userSpaceOnUse" x1="2324.2551" y1="-1816.5746" x2="2418.0142" y2="-1816.5746" gradientTransform="matrix(0 -1 1 0 2167.7705 2417.8938)">
			<stop  offset="0" style="stop-color:#8DC21F"/>
			<stop  offset="1" style="stop-color:#0084CF"/>
		</linearGradient>
		<path class="st2" d="M349.8,93.6V4c0-0.7,0.2-1.3,0.5-2c0.3-0.6,0.8-1.1,1.4-1.5l0.9-0.6v91.9c0,0.5-0.2,0.9-0.5,1.3
			c-0.4,0.4-0.8,0.5-1.3,0.5H349.8z"/>
		
			<linearGradient id="SVGID_00000163044555634924893090000007967207999270251927_" gradientUnits="userSpaceOnUse" x1="2446.2588" y1="1916.0345" x2="2540.0176" y2="1916.0345" gradientTransform="matrix(0 1 -1 0 2268.6399 -2442.8972)">
			<stop  offset="0" style="stop-color:#8DC21F"/>
			<stop  offset="1" style="stop-color:#0084CF"/>
		</linearGradient>
		<path style="fill:url(#SVGID_00000163044555634924893090000007967207999270251927_);" d="M354,3.4V93c0,0.7-0.2,1.3-0.5,2
			s-0.8,1.1-1.4,1.5l-0.9,0.6V5.2c0-0.5,0.2-0.9,0.5-1.3c0.4-0.4,0.8-0.5,1.3-0.5H354z"/>
	</g>
	<g>
		<g>
			
				<linearGradient id="SVGID_00000173879160593382170930000013983316383886442405_" gradientUnits="userSpaceOnUse" x1="499.1075" y1="71.8068" x2="453.7455" y2="26.4449">
				<stop  offset="0" style="stop-color:#8DC21F"/>
				<stop  offset="0.1835" style="stop-color:#7FBF22"/>
				<stop  offset="0.5319" style="stop-color:#59B72B"/>
				<stop  offset="1" style="stop-color:#1EAA39"/>
			</linearGradient>
			<path style="fill:url(#SVGID_00000173879160593382170930000013983316383886442405_);" d="M441.8,64.7l7.6-7.4
				c1.6-1.6,1.6-4.1,0-5.7l-4.8-4.7l22.9-22.2c3.8-3.6,9.7-3.6,13.5,0L503.9,47l0,0l0,0c5.9,5.7,15.3,5.7,21.2,0l0,0L481,4.3
				c-3.8-3.6-9.7-3.6-13.5,0l-44,42.6L441.8,64.7z"/>
			
				<linearGradient id="SVGID_00000085213020211656760610000001267897774195789188_" gradientUnits="userSpaceOnUse" x1="469.6131" y1="90.7909" x2="497.8394" y2="62.5646">
				<stop  offset="0" style="stop-color:#0B308E"/>
				<stop  offset="0.1874" style="stop-color:#0A3F9A"/>
				<stop  offset="0.5472" style="stop-color:#0666BA"/>
				<stop  offset="1" style="stop-color:#009FE8"/>
			</linearGradient>
			<path style="fill:url(#SVGID_00000085213020211656760610000001267897774195789188_);" d="M487.5,67.8l-6.6,6.4
				c-2.6,2.5-6.7,2.5-9.4,0v0l-10,9.7l11.9,11.5c1.5,1.5,4,1.5,5.5,0l28.5-27.6l0,0C502,62.4,493.1,62.4,487.5,67.8z"/>
			
				<linearGradient id="SVGID_00000005952913893515574290000010035957599939048871_" gradientUnits="userSpaceOnUse" x1="444.1533" y1="6.5758" x2="416.6606" y2="34.0685">
				<stop  offset="0" style="stop-color:#0B308E"/>
				<stop  offset="0.1874" style="stop-color:#0A3F9A"/>
				<stop  offset="0.5472" style="stop-color:#0666BA"/>
				<stop  offset="1" style="stop-color:#009FE8"/>
			</linearGradient>
			<path style="fill:url(#SVGID_00000005952913893515574290000010035957599939048871_);" d="M426.6,29.2l6.6-6.4
				c2.6-2.5,6.7-2.5,9.4,0v0l10-9.7L440.6,1.6c-1.5-1.5-4-1.5-5.5,0l-28.5,27.6v0C412.2,34.6,421,34.6,426.6,29.2z"/>
			
				<linearGradient id="SVGID_00000163760532346504734230000006866135531237623685_" gradientUnits="userSpaceOnUse" x1="460.0889" y1="70.2563" x2="403.5284" y2="13.6958">
				<stop  offset="0" style="stop-color:#8DC21F"/>
				<stop  offset="0.1835" style="stop-color:#7FBF22"/>
				<stop  offset="0.5319" style="stop-color:#59B72B"/>
				<stop  offset="1" style="stop-color:#1EAA39"/>
			</linearGradient>
			<path style="fill:url(#SVGID_00000163760532346504734230000006866135531237623685_);" d="M472.3,32.3l-7.6,7.4
				c-1.6,1.6-1.6,4.1,0,5.7l4.8,4.7l-22.9,22.2c-3.8,3.6-9.7,3.6-13.5,0L410.2,50l0,0v0c-5.9-5.7-15.3-5.7-21.2,0l0,0l44,42.6
				c3.8,3.6,9.7,3.6,13.5,0l44-42.6L472.3,32.3z"/>
			
				<linearGradient id="SVGID_00000080920083513822852270000007717750599776789381_" gradientUnits="userSpaceOnUse" x1="432.5875" y1="56.0736" x2="472.5909" y2="16.0702">
				<stop  offset="0" style="stop-color:#8DC21F"/>
				<stop  offset="0.1507" style="stop-color:#7FBB22"/>
				<stop  offset="0.4369" style="stop-color:#59A92B"/>
				<stop  offset="0.8254" style="stop-color:#1D8D3A"/>
				<stop  offset="1" style="stop-color:#007F41"/>
			</linearGradient>
			<path style="fill:url(#SVGID_00000080920083513822852270000007717750599776789381_);" d="M449.5,57.4c1.6-1.6,1.6-4.1,0-5.7
				l-4.8-4.7l22.9-22.2c1.6-1.6,6.4-4.7,12.1-1.1c0,0-9.6-19.4-23.6-8.2c-1.3,1.1-7.4,7.2-8.7,8.5l-3,2.9c-0.9,0.9-1.8,1.7-2.7,2.6
				l-2.9,2.8c-0.7,0.7-1.4,1.3-2,2l-1.2,1.2c-1.4,1.4-2.8,2.7-4,3.9l-3.3,3.2c-0.3,0.3-0.6,0.6-0.9,0.8l-1.9,1.9
				c-0.2,0.2-0.4,0.4-0.6,0.6l-0.9,0.9c-0.1,0.1-0.2,0.2-0.3,0.3l-0.1,0.1l18.4,17.8L449.5,57.4z"/>
			
				<linearGradient id="SVGID_00000154417119512865453630000015791016930891316649_" gradientUnits="userSpaceOnUse" x1="480.6342" y1="41.8378" x2="432.2076" y2="90.2643">
				<stop  offset="0" style="stop-color:#8DC21F"/>
				<stop  offset="0.1507" style="stop-color:#7FBB22"/>
				<stop  offset="0.4369" style="stop-color:#59A92B"/>
				<stop  offset="0.8254" style="stop-color:#1D8D3A"/>
				<stop  offset="1" style="stop-color:#007F41"/>
			</linearGradient>
			<path style="fill:url(#SVGID_00000154417119512865453630000015791016930891316649_);" d="M464.6,39.6c-1.6,1.6-1.6,4.1,0,5.7
				l4.8,4.7l-22.9,22.2c-1.6,1.6-6.4,4.7-12.1,1.1c0,0,9.6,19.4,23.6,8.2c1.3-1.1,7.4-7.2,8.7-8.5l3-2.9c0.9-0.9,1.8-1.7,2.7-2.6
				l2.9-2.8c0.7-0.7,1.4-1.3,2-2l1.2-1.2c1.4-1.4,2.8-2.7,4-3.9l3.3-3.2c0.3-0.3,0.6-0.6,0.9-0.8l1.9-1.9c0.2-0.2,0.4-0.4,0.6-0.6
				l0.9-0.9c0.1-0.1,0.2-0.2,0.3-0.3l0.1-0.1l-18.4-17.8L464.6,39.6z"/>
		</g>
		<g>
			<g>
				<path class="st10" d="M550.6,56.4v-0.8h2.5v2h-1.4v4h1.9v1.1h-1.9v4.6h1.9v1.1h-1.9v9.2H549V62.7h-6v-1.1h6v-4h-6v-1.1H550.6z
					 M544.4,64.1h2.1l-0.5,13.5h-2.1L544.4,64.1z M559.8,59.9l1.1,4.9h3.3v-7h-8.8v-2.2h3v1.1h8.6v9.3h-12.2v-1.1h3.4l-0.9-3.8h-2.3
					v-1.1H559.8z M559.8,71.3l1.1,4.9h3.3v-7h-8.8V67h3v1.1h8.6v9.3h-12.2v-1.1h3.4l-0.8-3.7h-2.3v-1.1H559.8z"/>
				<path class="st10" d="M580.2,55.8V57h-11v-1.1H580.2z M580.2,61.5v1.1h-6.1l-1.1,13.5h4.1v-10h2.5v11.2h-9.4v-1.1l1.1-13.5h-2.2
					v-1.1H580.2z M583.1,76.2l0.6-18.4h-2.5v-1.1h2.5l0.1-1.1h2.7l-0.1,1.1h6.6v20.7h-4.9v-1.1h2.1V57.8h-3.9l-0.7,19.6h-4.5v-1.1
					H583.1z"/>
				<path class="st10" d="M603.4,59.1h2.2l0.5-3.5h2l-0.5,3.5h1.4v1.1h-5.6v5.4h-2.6v-5.4h-5.6v-1.1h1.4l-0.5-3.5h2l0.5,3.5h2.2
					v-3.5h2.6V59.1z M596.3,64.2l0.2-2.9h2l-0.3,4.1h-3.1v-1.1H596.3z M597,76.2l3-1.7l-3.4-2v-3.8h-1.4v-1.1h1.4v-1h2.7v1h5.6v-1
					h2.7v1h1.4v1.1h-1.4v3.7l-3.5,2l3,1.7h1.9v1.1h-4l-2.9-1.6l-2.9,1.6h-4v-1.1H597z M604.9,71.7v-2.9h-5.6v2.9l2.8,1.6L604.9,71.7
					z M607.7,64h1.2v1.1h-3.1l-0.3-4.1h2L607.7,64z M614.8,64.5l1.6-5.3h2.4l-2.8,9.2l2.4,7.8h1.3v1.1h-3.3l-1.6-5.1l-1.6,5.1h-3.4
					v-1.1h1.3l2.4-7.8l-2.8-9.2h2.4L614.8,64.5z M613,56.6h6.8v1.1h-9.3v-2.2h2.6V56.6z"/>
				<path class="st10" d="M639.1,76.2v-6.6h-17.8v-1.1h15.8l3.2-5h-18.2v-1.1h21.4v1.1l-3.2,5h5.5v1.1h-3.9v7.7h-19.8v-1.1H639.1z
					 M634.9,56.6h10.2v3.8h-2.7v-2.7h-17.9v2.7h-2.7v-3.8h10.3v-1.1h2.8V56.6z"/>
				<path class="st10" d="M654.7,55.8V57h-2.3v20.6h-2.7V57h-2.3v-1.1H654.7z M657.9,58.1v-2.5h2.7v2.3l11.2-0.9v1.2L660.6,59v17.2
					h11.3v1.1h-14V59.2l-2,0.2v-1.2L657.9,58.1z"/>
				<path class="st10" d="M676.5,76.2l7.6-18.4h-10.1v-1.1h10.4v-1.1h2.8v1.1h10.5v1.1h-10.3l7.5,18.4h3.1v1.1h-5.5l-6.7-16.5
					l-6.8,16.5h-5.5v-1.1H676.5z"/>
				<path class="st10" d="M701,60.7l0.7-4.9h20l0.8,4.9h1.5v1.1h-4.3l-0.8-4.9h-14.5l-0.7,4.9h-4.3v-1.1H701z M723.8,68.4v1.1h-18.7
					l-1.1,6.6h16.2l-0.3-4.6h2.7l0.4,5.7h-21.8v-1.1l1.1-6.6h-2.5v-1.1H723.8z M723.6,63.7v1.1h-23.6v-1.1H723.6z"/>
			</g>
		</g>
		<g>
			<path class="st11" d="M543.1,41.5V17c0-1.6,0.5-2.8,1.4-3.8c0.9-1,2.1-1.5,3.5-1.5h34v2.7h-30.8c-1.1,0-1.7,0.6-1.7,1.7v26.3
				c0,1.2,0.6,1.8,1.7,1.8h30.8v2.7h-34c-1.4,0-2.6-0.5-3.5-1.5C543.5,44.3,543.1,43,543.1,41.5z"/>
			<path class="st11" d="M590.4,11.8h8.1l11.3,13.3l11.3-13.3h8.1v35.1h-6.5V20.2l-10.6,12.6h-4.7l-10.6-12.6v26.6h-6.5V11.8z"/>
			<path class="st11" d="M637.8,46.8V11.8h30.8c1.4,0,2.7,0.4,4.1,1.1c2.7,1.5,4,4.1,4,7.7V38c0,3.6-1.3,6.2-4,7.7
				c-1.3,0.7-2.7,1.1-4.1,1.1H637.8z M665.3,44.2c1.4,0,2.5-0.5,3.5-1.5c0.9-1,1.4-2.2,1.4-3.8V19.6c0-1.6-0.4-2.9-1.3-3.8
				c-0.9-0.9-2.1-1.4-3.5-1.4h-21.1v29.8H665.3z"/>
			<path class="st11" d="M685.1,41.5V17c0-1.6,0.5-2.8,1.4-3.8c0.9-1,2.1-1.5,3.5-1.5h34v2.7h-30.8c-1.1,0-1.7,0.6-1.7,1.7v26.3
				c0,1.2,0.6,1.8,1.7,1.8H724v2.7h-34c-1.4,0-2.6-0.5-3.5-1.5C685.6,44.3,685.1,43,685.1,41.5z"/>
		</g>
		<g>
			<g>
				<path class="st12" d="M547.5,86.4l0.8,0.2c-0.4,1.3-1.2,1.9-2.5,1.9c-1.7-0.1-2.5-1.1-2.6-2.9c0.1-2,1-3,2.7-3.1
					c1.1,0,1.9,0.6,2.4,1.7l-0.7,0.2c-0.3-0.8-0.9-1.3-1.7-1.3c-1.2,0.1-1.8,0.9-1.9,2.5c0.1,1.5,0.7,2.3,1.9,2.4
					C546.6,87.9,547.2,87.4,547.5,86.4z"/>
				<path class="st12" d="M553.1,82.6h0.6v5.8h-0.6v-2.7h-3.3v2.7h-0.7v-5.8h0.7v2.5h3.3V82.6z"/>
				<path class="st12" d="M555.1,88.4v-5.8h0.6v5.8H555.1z"/>
				<path class="st12" d="M561.7,88.4H561l-3-4.6c-0.1-0.2-0.2-0.3-0.3-0.6h0c0.1,0.2,0.1,0.6,0.1,1v4.3h-0.6v-5.8h0.8l3,4.7
					c0.1,0.2,0.2,0.3,0.2,0.5h0c0-0.3-0.1-0.6-0.1-0.9v-4.2h0.6V88.4z"/>
				<path class="st12" d="M567.1,88.4l-0.7-1.8h-2.6l-0.7,1.8h-0.7l2.4-5.8h0.7l2.4,5.8H567.1z M564,86.1h2.2l-1-2.5
					c0-0.1-0.1-0.2-0.1-0.4c-0.1,0.2-0.1,0.3-0.1,0.4L564,86.1z"/>
				<path class="st12" d="M575.4,88.4v-4.1c0-0.1,0-0.4,0.1-0.9c0-0.2,0-0.3,0-0.3l0,0c-0.1,0.3-0.1,0.6-0.2,0.8l-1.9,4.6H573
					l-1.8-4.6c-0.1-0.3-0.1-0.6-0.2-0.7l0,0c0,0.5,0.1,0.9,0.1,1.2v4.1h-0.6v-5.8h0.9l1.7,4.2c0.1,0.2,0.2,0.5,0.2,0.8h0
					c0.1-0.3,0.1-0.5,0.2-0.8l1.7-4.2h0.9v5.8H575.4z"/>
				<path class="st12" d="M579.8,88.5c-1.8-0.1-2.7-1.1-2.8-2.9c0.1-2,1-3,2.8-3.1c1.7,0.1,2.6,1.1,2.8,3
					C582.6,87.4,581.6,88.4,579.8,88.5z M579.8,83.1c-1.3,0.1-2,0.9-2.1,2.5c0.1,1.5,0.8,2.3,2.1,2.4c1.4-0.1,2.1-0.9,2.1-2.4
					C581.8,84,581.1,83.2,579.8,83.1z"/>
				<path class="st12" d="M586,88.4h-2.4v-5.8h2.3c1.2,0.1,1.8,0.5,1.9,1.5c-0.1,0.7-0.4,1.1-1.2,1.3v0c0.9,0.1,1.3,0.6,1.4,1.5
					C587.9,87.8,587.2,88.4,586,88.4z M585.7,83.2h-1.5v1.9h1.5c0.8,0,1.2-0.4,1.3-1C586.9,83.5,586.5,83.2,585.7,83.2z M585.8,85.7
					h-1.6v2.2h1.7c0.9,0,1.4-0.4,1.4-1.1C587.2,86.1,586.7,85.7,585.8,85.7z"/>
				<path class="st12" d="M589.1,88.4v-5.8h0.6v5.8H589.1z"/>
				<path class="st12" d="M594.7,88.4h-3.7v-5.8h0.7v5.3h3V88.4z"/>
				<path class="st12" d="M596.3,87.9h3.7v0.5h-4.4v-5.8h4.2v0.6h-3.5v2h3.3v0.6h-3.3V87.9z"/>
				<path class="st12" d="M605.1,88.4h-2v-5.8h2c1.8,0.1,2.7,1,2.8,2.9C608,87.5,607,88.4,605.1,88.4z M605.1,83.2h-1.4v4.7h1.3
					c1.5,0,2.2-0.8,2.2-2.4C607.2,84,606.5,83.2,605.1,83.2z"/>
				<path class="st12" d="M609.1,88.4v-5.8h0.6v5.8H609.1z"/>
				<path class="st12" d="M613.7,85.4h2.5v2.1c-0.5,0.6-1.3,1-2.5,1c-1.8-0.1-2.8-1.1-2.9-2.9c0.1-2,1-3,2.8-3.1
					c1.3,0,2.2,0.6,2.6,1.7l-0.7,0.2c-0.3-0.9-0.9-1.3-1.9-1.3c-1.2,0.1-1.9,0.9-2,2.5c0.1,1.5,0.8,2.3,2.1,2.4
					c0.9,0,1.5-0.2,1.9-0.7V86h-1.9V85.4z"/>
				<path class="st12" d="M617.4,88.4v-5.8h0.6v5.8H617.4z"/>
				<path class="st12" d="M623.6,82.6v0.6h-2v5.3H621v-5.3h-2v-0.6H623.6z"/>
				<path class="st12" d="M628.5,88.4l-0.7-1.8h-2.6l-0.7,1.8h-0.7l2.4-5.8h0.7l2.4,5.8H628.5z M625.4,86.1h2.2l-1-2.5
					c0-0.1-0.1-0.2-0.1-0.4c-0.1,0.2-0.1,0.3-0.1,0.4L625.4,86.1z"/>
				<path class="st12" d="M633.5,88.4h-3.7v-5.8h0.7v5.3h3V88.4z"/>
				<path class="st12" d="M634.5,88.4v-5.8h0.6v5.8H634.5z"/>
				<path class="st12" d="M640.5,83l-3.6,4.9h3.7v0.5H636v-0.3l3.6-4.9h-3.3v-0.6h4.2V83z"/>
				<path class="st12" d="M645.6,88.4l-0.7-1.8h-2.6l-0.7,1.8h-0.7l2.4-5.8h0.7l2.4,5.8H645.6z M642.5,86.1h2.2l-1-2.5
					c0-0.1-0.1-0.2-0.1-0.4c-0.1,0.2-0.1,0.3-0.1,0.4L642.5,86.1z"/>
				<path class="st12" d="M651.1,82.6v0.6h-2v5.3h-0.7v-5.3h-2v-0.6H651.1z"/>
				<path class="st12" d="M652,88.4v-5.8h0.6v5.8H652z"/>
				<path class="st12" d="M656.6,88.5c-1.8-0.1-2.7-1.1-2.8-2.9c0.1-2,1-3,2.8-3.1c1.7,0.1,2.6,1.1,2.8,3
					C659.3,87.4,658.4,88.4,656.6,88.5z M656.6,83.1c-1.3,0.1-2,0.9-2.1,2.5c0.1,1.5,0.8,2.3,2.1,2.4c1.4-0.1,2.1-0.9,2.1-2.4
					C658.6,84,657.9,83.2,656.6,83.1z"/>
				<path class="st12" d="M664.9,88.4h-0.7l-3-4.6c-0.1-0.2-0.2-0.3-0.3-0.6h0c0.1,0.2,0.1,0.6,0.1,1v4.3h-0.6v-5.8h0.8l3,4.7
					c0.1,0.2,0.2,0.3,0.2,0.5h0c0-0.3-0.1-0.6-0.1-0.9v-4.2h0.6V88.4z"/>
				<path class="st12" d="M672.4,86.4l0.8,0.2c-0.4,1.3-1.2,1.9-2.5,1.9c-1.7-0.1-2.5-1.1-2.6-2.9c0.1-2,1-3,2.7-3.1
					c1.1,0,1.9,0.6,2.4,1.7l-0.7,0.2c-0.3-0.8-0.9-1.3-1.7-1.3c-1.2,0.1-1.8,0.9-1.9,2.5c0.1,1.5,0.7,2.3,1.9,2.4
					C671.6,87.9,672.2,87.4,672.4,86.4z"/>
				<path class="st12" d="M676.7,88.5c-1.8-0.1-2.7-1.1-2.8-2.9c0.1-2,1-3,2.8-3.1c1.7,0.1,2.6,1.1,2.8,3
					C679.4,87.4,678.5,88.4,676.7,88.5z M676.7,83.1c-1.3,0.1-2,0.9-2.1,2.5c0.1,1.5,0.8,2.3,2.1,2.4c1.4-0.1,2.1-0.9,2.1-2.4
					C678.7,84,678,83.2,676.7,83.1z"/>
				<path class="st12" d="M685,88.4h-0.7l-3-4.6c-0.1-0.2-0.2-0.3-0.3-0.6h0c0.1,0.2,0.1,0.6,0.1,1v4.3h-0.6v-5.8h0.8l3,4.7
					c0.1,0.2,0.2,0.3,0.2,0.5h0c0-0.3-0.1-0.6-0.1-0.9v-4.2h0.6V88.4z"/>
				<path class="st12" d="M690.3,83.2H687v1.9h2.8l0,0.6H687v2.7h-0.6v-5.8h3.9V83.2z"/>
				<path class="st12" d="M691.9,87.9h3.7v0.5h-4.4v-5.8h4.2v0.6h-3.5v2h3.3v0.6h-3.3V87.9z"/>
				<path class="st12" d="M701.8,88.4h-0.9l-2-2.6h-1.5v2.6h-0.7v-5.8h2.7c1.2,0.1,1.9,0.6,2,1.6c0,1-0.6,1.5-1.7,1.6L701.8,88.4z
					 M697.3,83.2v2h1.9c0.9,0,1.4-0.4,1.4-1.1c0-0.6-0.5-0.9-1.4-1H697.3z"/>
				<path class="st12" d="M703.2,87.9h3.7v0.5h-4.4v-5.8h4.2v0.6h-3.5v2h3.3v0.6h-3.3V87.9z"/>
				<path class="st12" d="M712.5,88.4h-0.7l-3-4.6c-0.1-0.2-0.2-0.3-0.3-0.6h0c0.1,0.2,0.1,0.6,0.1,1v4.3h-0.6v-5.8h0.8l3,4.7
					c0.1,0.2,0.2,0.3,0.2,0.5h0c0-0.3-0.1-0.6-0.1-0.9v-4.2h0.6V88.4z"/>
				<path class="st12" d="M717.9,86.4l0.8,0.2c-0.4,1.3-1.2,1.9-2.5,1.9c-1.7-0.1-2.5-1.1-2.6-2.9c0.1-2,1-3,2.7-3.1
					c1.1,0,1.9,0.6,2.4,1.7l-0.7,0.2c-0.3-0.8-0.9-1.3-1.7-1.3c-1.2,0.1-1.8,0.9-1.9,2.5c0.1,1.5,0.7,2.3,1.9,2.4
					C717.1,87.9,717.7,87.4,717.9,86.4z"/>
				<path class="st12" d="M720.3,87.9h3.7v0.5h-4.4v-5.8h4.2v0.6h-3.5v2h3.3v0.6h-3.3V87.9z"/>
			</g>
		</g>
	</g>
</g>
</svg>
