<?xml version="1.0" encoding="UTF-8"?>
<!DOCTYPE svg PUBLIC "-//W3C//DTD SVG 1.1//EN" "http://www.w3.org/Graphics/SVG/1.1/DTD/svg11.dtd">
<svg xmlns="http://www.w3.org/2000/svg" version="1.1" width="724px" height="97px" style="shape-rendering:geometricPrecision; text-rendering:geometricPrecision; image-rendering:optimizeQuality; fill-rule:evenodd; clip-rule:evenodd" xmlns:xlink="http://www.w3.org/1999/xlink">
<g><path style="opacity:0.839" fill="#0084d0" d="M 41.5,-0.5 C 46.8333,-0.5 52.1667,-0.5 57.5,-0.5C 76.2164,9.71502 89.8831,24.5484 98.5,44C 98.1667,44.5 97.8333,45 97.5,45.5C 89.902,34.863 81.2353,25.0296 71.5,16C 62.2888,7.11089 51.9555,5.44422 40.5,11C 31.2026,18.6287 22.2026,26.6287 13.5,35C 12.5,35.6667 11.5,35.6667 10.5,35C 7.72641,32.9362 5.89308,30.4362 5,27.5C 12.1667,21 19.3333,14.5 26.5,8C 30.9779,4.09846 35.9779,1.26512 41.5,-0.5 Z"/></g>
<g><path style="opacity:0.92" fill="#033a95" d="M 435.5,-0.5 C 436.833,-0.5 438.167,-0.5 439.5,-0.5C 444.119,3.45188 448.452,7.78521 452.5,12.5C 450.479,15.1878 448.146,17.5211 445.5,19.5C 440.833,14.1667 435.833,9.16667 430.5,4.5C 431.861,2.47266 433.527,0.805998 435.5,-0.5 Z"/></g>
<g><path style="opacity:0.791" fill="#0084d0" d="M 245.5,3.5 C 247.14,4.32006 248.807,5.15339 250.5,6C 250.043,6.41395 249.709,6.91395 249.5,7.5C 254.12,8.49329 258.786,8.82662 263.5,8.5C 263.702,10.9892 263.202,13.3225 262,15.5C 259.395,19.0597 256.229,22.0597 252.5,24.5C 253.167,25.1667 253.833,25.8333 254.5,26.5C 258.122,27.3253 261.789,27.8253 265.5,28C 264.658,36.6747 260.324,43.008 252.5,47C 247.021,49.6272 241.354,50.4605 235.5,49.5C 234.289,48.2798 234.289,47.1131 235.5,46C 239.766,45.8251 243.766,44.8251 247.5,43C 246.271,41.4708 244.771,40.3041 243,39.5C 239.722,42.514 237.222,42.014 235.5,38C 239.111,35.3933 242.444,32.3933 245.5,29C 243.711,28.4795 242.044,28.8129 240.5,30C 238.707,31.7799 237.04,33.6132 235.5,35.5C 234.186,34.6872 233.019,33.6872 232,32.5C 231.501,38.4908 231.334,44.4908 231.5,50.5C 229.833,50.5 228.167,50.5 226.5,50.5C 226.666,45.4889 226.499,40.4889 226,35.5C 224.732,37.7173 223.232,39.7173 221.5,41.5C 219.888,40.4514 218.888,38.9514 218.5,37C 221.188,32.7928 223.188,28.2928 224.5,23.5C 222.833,23.5 221.167,23.5 219.5,23.5C 219.5,21.8333 219.5,20.1667 219.5,18.5C 221.833,18.5 224.167,18.5 226.5,18.5C 226.5,16.8333 226.5,15.1667 226.5,13.5C 224.167,13.5 221.833,13.5 219.5,13.5C 219.5,11.8333 219.5,10.1667 219.5,8.5C 225.526,8.05117 231.526,7.38451 237.5,6.5C 238.168,11.1606 236.168,13.1606 231.5,12.5C 231.5,14.5 231.5,16.5 231.5,18.5C 233.199,18.6602 234.866,18.4935 236.5,18C 235.549,17.2825 235.383,16.4491 236,15.5C 240.143,12.1998 243.309,8.19976 245.5,3.5 Z M 245.5,14.5 C 248.64,13.3592 251.973,13.1925 255.5,14C 254.333,15.8333 252.833,17.3333 251,18.5C 249.226,17.035 247.392,15.7017 245.5,14.5 Z M 237.5,29.5 C 235.519,27.8564 233.519,26.1897 231.5,24.5C 233.396,23.5344 235.396,23.2011 237.5,23.5C 237.5,22.1667 237.5,20.8333 237.5,19.5C 239.39,19.7035 240.89,19.0368 242,17.5C 243.353,18.6853 244.52,20.0186 245.5,21.5C 242.956,23.0186 240.289,24.352 237.5,25.5C 236.708,26.6998 236.708,28.0331 237.5,29.5 Z M 250.5,32.5 C 260.146,32.0565 260.813,34.7231 252.5,40.5C 250.684,39.1851 249.017,37.6851 247.5,36C 248.71,34.9609 249.71,33.7942 250.5,32.5 Z"/></g>
<g><path style="opacity:0.837" fill="#0084d0" d="M 136.5,4.5 C 138.5,4.5 140.5,4.5 142.5,4.5C 142.5,7.16667 142.5,9.83333 142.5,12.5C 148.167,12.5 153.833,12.5 159.5,12.5C 159.5,20.8333 159.5,29.1667 159.5,37.5C 153.833,37.5 148.167,37.5 142.5,37.5C 142.5,41.8333 142.5,46.1667 142.5,50.5C 140.5,50.5 138.5,50.5 136.5,50.5C 136.5,46.1667 136.5,41.8333 136.5,37.5C 130.833,37.5 125.167,37.5 119.5,37.5C 119.5,29.1667 119.5,20.8333 119.5,12.5C 125.167,12.5 130.833,12.5 136.5,12.5C 136.5,9.83333 136.5,7.16667 136.5,4.5 Z M 124.5,18.5 C 128.5,18.5 132.5,18.5 136.5,18.5C 136.5,23.1667 136.5,27.8333 136.5,32.5C 132.5,32.5 128.5,32.5 124.5,32.5C 124.5,27.8333 124.5,23.1667 124.5,18.5 Z M 142.5,18.5 C 146.5,18.5 150.5,18.5 154.5,18.5C 154.5,23.1667 154.5,27.8333 154.5,32.5C 150.5,32.5 146.5,32.5 142.5,32.5C 142.5,27.8333 142.5,23.1667 142.5,18.5 Z"/></g>
<g><path style="opacity:0.804" fill="#0084d0" d="M 297.5,4.5 C 299.5,4.5 301.5,4.5 303.5,4.5C 302.841,7.45517 302.508,10.4552 302.5,13.5C 306.833,13.5 311.167,13.5 315.5,13.5C 314.827,23.817 314.327,34.1503 314,44.5C 312.791,48.4403 310.124,50.107 306,49.5C 302.14,49.9288 300.306,48.2622 300.5,44.5C 302.92,44.7076 305.253,44.3742 307.5,43.5C 309.22,35.6033 309.886,27.6033 309.5,19.5C 307.167,19.5 304.833,19.5 302.5,19.5C 304.371,31.1972 301.371,41.3638 293.5,50C 290.549,52.0443 288.216,51.3777 286.5,48C 287.833,46.6667 289.167,45.3333 290.5,44C 283.724,43.8591 277.058,44.6924 270.5,46.5C 270.67,45.1779 270.337,44.0113 269.5,43C 273.023,37.9417 275.689,32.4417 277.5,26.5C 275.257,25.5258 272.924,25.1924 270.5,25.5C 270.5,23.8333 270.5,22.1667 270.5,20.5C 278.167,20.5 285.833,20.5 293.5,20.5C 293.5,22.1667 293.5,23.8333 293.5,25.5C 290.15,25.335 286.817,25.5017 283.5,26C 281.775,30.7827 279.775,35.4494 277.5,40C 280.244,39.9808 282.911,39.3141 285.5,38C 284.308,36.0876 283.308,34.0876 282.5,32C 283.665,30.9164 284.998,30.0831 286.5,29.5C 289.314,33.0716 291.481,37.0716 293,41.5C 296.482,34.5887 297.982,27.2553 297.5,19.5C 295.5,19.5 293.5,19.5 291.5,19.5C 291.5,17.5 291.5,15.5 291.5,13.5C 285.167,13.5 278.833,13.5 272.5,13.5C 272.5,11.8333 272.5,10.1667 272.5,8.5C 279.167,8.5 285.833,8.5 292.5,8.5C 292.5,10.1667 292.5,11.8333 292.5,13.5C 294.167,13.5 295.833,13.5 297.5,13.5C 297.5,10.5 297.5,7.5 297.5,4.5 Z"/></g>
<g><path style="opacity:0.779" fill="#0084d0" d="M 169.5,6.5 C 183.5,6.5 197.5,6.5 211.5,6.5C 211.5,20.8333 211.5,35.1667 211.5,49.5C 197.5,49.5 183.5,49.5 169.5,49.5C 169.5,35.1667 169.5,20.8333 169.5,6.5 Z M 175.5,11.5 C 185.5,11.5 195.5,11.5 205.5,11.5C 205.5,22.5 205.5,33.5 205.5,44.5C 195.5,44.5 185.5,44.5 175.5,44.5C 175.5,33.5 175.5,22.5 175.5,11.5 Z M 192.5,28.5 C 193.239,28.369 193.906,28.5357 194.5,29C 193.483,30.0495 193.316,31.2161 194,32.5C 199.099,35.8535 198.599,37.1869 192.5,36.5C 192.5,33.8333 192.5,31.1667 192.5,28.5 Z"/></g>
<g><path style="opacity:0.923" fill="#004fa3" d="M 430.5,4.5 C 435.833,9.16667 440.833,14.1667 445.5,19.5C 443.904,22.5862 441.571,23.2529 438.5,21.5C 434.5,17.1667 430.5,12.8333 426.5,8.5C 427.5,6.83333 428.833,5.5 430.5,4.5 Z"/></g>
<g><path style="opacity:0.531" fill="#008ac8" d="M 350.5,-0.5 C 351.167,-0.5 351.833,-0.5 352.5,-0.5C 352.5,0.5 352.5,1.5 352.5,2.5C 351.833,2.5 351.5,2.83333 351.5,3.5C 350.521,6.62482 350.187,9.95815 350.5,13.5C 349.833,13.5 349.167,13.5 348.5,13.5C 347.962,8.5329 348.629,3.86624 350.5,-0.5 Z"/></g>
<g><path style="opacity:0.841" fill="#1c2954" d="M 545.5,10.5 C 557.5,10.5 569.5,10.5 581.5,10.5C 581.5,11.8333 581.5,13.1667 581.5,14.5C 570.833,14.5 560.167,14.5 549.5,14.5C 549.182,24.0834 549.515,33.5834 550.5,43C 560.828,43.4998 571.161,43.6665 581.5,43.5C 581.5,44.5 581.5,45.5 581.5,46.5C 569.162,46.6665 556.829,46.4999 544.5,46C 544,45.5 543.5,45 543,44.5C 542.333,33.8333 542.333,23.1667 543,12.5C 543.995,11.9341 544.828,11.2674 545.5,10.5 Z"/></g>
<g><path style="opacity:0.859" fill="#1c2954" d="M 589.5,10.5 C 592.518,10.3354 595.518,10.502 598.5,11C 602,15.1667 605.5,19.3333 609,23.5C 612.717,19.2384 616.55,15.0718 620.5,11C 623.482,10.502 626.482,10.3354 629.5,10.5C 629.5,22.5 629.5,34.5 629.5,46.5C 626.833,46.5 624.167,46.5 621.5,46.5C 621.666,38.4931 621.5,30.4931 621,22.5C 618.518,25.9493 615.685,29.116 612.5,32C 610.167,32.6667 607.833,32.6667 605.5,32C 602.667,28.5 599.833,25 597,21.5C 596.5,29.8267 596.334,38.16 596.5,46.5C 594.167,46.5 591.833,46.5 589.5,46.5C 589.5,34.5 589.5,22.5 589.5,10.5 Z"/></g>
<g><path style="opacity:0.823" fill="#1c2954" d="M 636.5,10.5 C 648.576,10.0625 660.576,10.5625 672.5,12C 674.333,12.5 675.5,13.6667 676,15.5C 676.667,24.1667 676.667,32.8333 676,41.5C 675.215,43.286 674.049,44.786 672.5,46C 660.505,46.4999 648.505,46.6665 636.5,46.5C 636.5,34.5 636.5,22.5 636.5,10.5 Z M 644.5,14.5 C 651.841,14.3337 659.174,14.5003 666.5,15C 667.701,15.9025 668.535,17.0692 669,18.5C 669.667,25.5 669.667,32.5 669,39.5C 668.626,40.4162 668.126,41.2496 667.5,42C 659.946,43.4321 652.279,43.9321 644.5,43.5C 644.5,33.8333 644.5,24.1667 644.5,14.5 Z"/></g>
<g><path style="opacity:0.84" fill="#1c2954" d="M 723.5,10.5 C 723.5,11.8333 723.5,13.1667 723.5,14.5C 712.833,14.5 702.167,14.5 691.5,14.5C 691.182,24.0834 691.515,33.5834 692.5,43C 702.828,43.4998 713.161,43.6665 723.5,43.5C 723.5,44.5 723.5,45.5 723.5,46.5C 711.162,46.6665 698.829,46.4999 686.5,46C 686,45.5 685.5,45 685,44.5C 684.333,33.8333 684.333,23.1667 685,12.5C 685.75,11.8742 686.584,11.3742 687.5,11C 699.495,10.5001 711.495,10.3335 723.5,10.5 Z"/></g>
<g><path style="opacity:1" fill="#02863f" d="M 477.5,22.5 C 473.915,22.1524 470.582,22.819 467.5,24.5C 463.358,22.8805 459.858,20.2138 457,16.5C 456.53,15.4232 456.697,14.4232 457.5,13.5C 466.773,10.1216 473.773,12.9549 478.5,22C 478.272,22.3988 477.938,22.5654 477.5,22.5 Z"/></g>
<g><path style="opacity:0.981" fill="#3aaf34" d="M 492.5,15.5 C 488.833,18.8333 485.167,22.1667 481.5,25.5C 479.77,24.9744 478.436,23.9744 477.5,22.5C 477.938,22.5654 478.272,22.3988 478.5,22C 473.773,12.9549 466.773,10.1216 457.5,13.5C 457.167,13.5 456.833,13.5 456.5,13.5C 460.804,7.01882 466.637,2.68549 474,0.5C 475.888,0.796035 477.722,1.29603 479.5,2C 484.037,6.36882 488.37,10.8688 492.5,15.5 Z"/></g>
<g><path style="opacity:0.846" fill="#0084d0" d="M 48.5,13.5 C 52.5138,13.3345 56.5138,13.5012 60.5,14C 76.5125,23.3458 89.1792,36.0125 98.5,52C 98.2645,52.8732 97.9312,53.7065 97.5,54.5C 96.8333,55.8333 96.1667,55.8333 95.5,54.5C 87.7238,43.8891 78.7238,34.3891 68.5,26C 63.3782,21.8393 58.0449,21.5059 52.5,25C 44.1667,32.6667 35.8333,40.3333 27.5,48C 21.9988,48.15 18.4988,45.65 17,40.5C 26.8086,30.5119 37.3086,21.5119 48.5,13.5 Z"/></g>
<g><path style="opacity:0.796" fill="#0084d0" d="M 177.5,13.5 C 186.167,13.5 194.833,13.5 203.5,13.5C 203.5,15.1667 203.5,16.8333 203.5,18.5C 199.833,18.5 196.167,18.5 192.5,18.5C 192.5,20.1667 192.5,21.8333 192.5,23.5C 195.833,23.5 199.167,23.5 202.5,23.5C 202.5,25.1667 202.5,26.8333 202.5,28.5C 201.127,28.3433 199.793,28.51 198.5,29C 200.227,30.3894 201.561,32.0561 202.5,34C 202.095,34.9454 201.428,35.6121 200.5,36C 201.793,36.49 203.127,36.6567 204.5,36.5C 204.5,38.1667 204.5,39.8333 204.5,41.5C 195.167,41.5 185.833,41.5 176.5,41.5C 176.5,39.8333 176.5,38.1667 176.5,36.5C 180.167,36.5 183.833,36.5 187.5,36.5C 187.5,33.8333 187.5,31.1667 187.5,28.5C 184.5,28.5 181.5,28.5 178.5,28.5C 178.5,26.8333 178.5,25.1667 178.5,23.5C 181.5,23.5 184.5,23.5 187.5,23.5C 187.5,21.8333 187.5,20.1667 187.5,18.5C 184.167,18.5 180.833,18.5 177.5,18.5C 177.5,16.8333 177.5,15.1667 177.5,13.5 Z M 192.5,28.5 C 192.5,31.1667 192.5,33.8333 192.5,36.5C 198.599,37.1869 199.099,35.8535 194,32.5C 193.316,31.2161 193.483,30.0495 194.5,29C 193.906,28.5357 193.239,28.369 192.5,28.5 Z"/></g>
<g><path style="opacity:0.668" fill="#80bc3d" d="M 352.5,2.5 C 353.117,2.61071 353.617,2.94404 354,3.5C 354.499,7.82056 354.666,12.1539 354.5,16.5C 353.5,16.5 352.5,16.5 351.5,16.5C 351.5,12.1667 351.5,7.83333 351.5,3.5C 351.5,2.83333 351.833,2.5 352.5,2.5 Z"/></g>
<g><path style="opacity:0.971" fill="#0068b7" d="M 426.5,8.5 C 430.5,12.8333 434.5,17.1667 438.5,21.5C 437.127,21.3433 435.793,21.51 434.5,22C 433.154,23.6692 431.487,24.8358 429.5,25.5C 425.833,22.5 422.5,19.1667 419.5,15.5C 421.5,12.8333 423.833,10.5 426.5,8.5 Z"/></g>
<g><path style="opacity:0.954" fill="#0084cf" d="M 419.5,15.5 C 422.5,19.1667 425.833,22.5 429.5,25.5C 427.761,28.2427 425.427,30.2427 422.5,31.5C 419.5,28.1667 416.5,24.8333 413.5,21.5C 415.167,19.1667 417.167,17.1667 419.5,15.5 Z"/></g>
<g><path style="opacity:0.909" fill="#62b62e" d="M 492.5,15.5 C 496.1,17.4302 499.1,20.0969 501.5,23.5C 497.5,26.8333 493.833,30.5 490.5,34.5C 487.167,31.8333 484.167,28.8333 481.5,25.5C 485.167,22.1667 488.833,18.8333 492.5,15.5 Z"/></g>
<g><path style="opacity:1" fill="#1e953a" d="M 456.5,13.5 C 456.833,13.5 457.167,13.5 457.5,13.5C 456.697,14.4232 456.53,15.4232 457,16.5C 459.858,20.2138 463.358,22.8805 467.5,24.5C 465.167,27.5 462.5,30.1667 459.5,32.5C 458.504,32.4142 457.671,32.7476 457,33.5C 453.227,30.2365 450.06,26.5698 447.5,22.5C 450.167,19.1667 453.167,16.1667 456.5,13.5 Z"/></g>
<g><path style="opacity:0.87" fill="#0099e3" d="M 413.5,21.5 C 416.5,24.8333 419.5,28.1667 422.5,31.5C 416.686,34.4577 411.186,33.791 406,29.5C 407.173,25.8194 409.673,23.1527 413.5,21.5 Z"/></g>
<g><path style="opacity:0.668" fill="#6ab35e" d="M 351.5,16.5 C 352.5,16.5 353.5,16.5 354.5,16.5C 354.5,21.8333 354.5,27.1667 354.5,32.5C 353.5,32.5 352.5,32.5 351.5,32.5C 351.5,27.1667 351.5,21.8333 351.5,16.5 Z"/></g>
<g><path style="opacity:0.531" fill="#0194b2" d="M 348.5,13.5 C 349.167,13.5 349.833,13.5 350.5,13.5C 350.5,19.5 350.5,25.5 350.5,31.5C 349.833,31.5 349.167,31.5 348.5,31.5C 348.5,25.5 348.5,19.5 348.5,13.5 Z"/></g>
<g><path style="opacity:0.85" fill="#8fc31e" d="M 59.5,29.5 C 64.5202,29.1174 68.8535,30.6174 72.5,34C 81.2359,42.0659 89.2359,50.7326 96.5,60C 95.9288,61.2051 95.2621,62.3717 94.5,63.5C 89.3152,59.1489 84.6486,54.3156 80.5,49C 76.9266,45.7521 73.0933,42.9188 69,40.5C 59.3682,47.741 50.2015,55.5743 41.5,64C 38.4536,66.174 35.1202,66.8407 31.5,66C 19.2815,57.9487 9.28152,47.7821 1.5,35.5C 1.5269,33.2956 2.5269,32.4622 4.5,33C 10.7366,42.404 18.7366,49.904 28.5,55.5C 38.8776,46.7807 49.2109,38.1141 59.5,29.5 Z"/></g>
<g><path style="opacity:1" fill="#44a97b" d="M 351.5,3.5 C 351.5,7.83333 351.5,12.1667 351.5,16.5C 351.5,21.8333 351.5,27.1667 351.5,32.5C 352.5,32.5 353.5,32.5 354.5,32.5C 354.5,37.1667 354.5,41.8333 354.5,46.5C 353.178,46.67 352.011,46.3366 351,45.5C 350.501,40.8452 350.334,36.1785 350.5,31.5C 350.5,25.5 350.5,19.5 350.5,13.5C 350.187,9.95815 350.521,6.62482 351.5,3.5 Z"/></g>
<g><path style="opacity:1" fill="#51a733" d="M 447.5,22.5 C 450.06,26.5698 453.227,30.2365 457,33.5C 457.671,32.7476 458.504,32.4142 459.5,32.5C 455.193,36.4718 450.859,40.4718 446.5,44.5C 443.94,40.4302 440.773,36.7635 437,33.5C 435.871,35.1412 434.371,36.1412 432.5,36.5C 437.474,31.8613 442.474,27.1947 447.5,22.5 Z"/></g>
<g><path style="opacity:0.92" fill="#7dbd25" d="M 501.5,23.5 C 509.506,31.1728 517.506,38.8395 525.5,46.5C 518.004,52.9726 510.337,53.1393 502.5,47C 498.296,42.9644 494.296,38.7978 490.5,34.5C 493.833,30.5 497.5,26.8333 501.5,23.5 Z"/></g>
<g><path style="opacity:0.974" fill="#88bf21" d="M 482.5,57.5 C 476.833,50.8333 471.167,44.1667 465.5,37.5C 467.311,34.1533 469.978,32.32 473.5,32C 479,37.5 484.5,43 490,48.5C 488.545,52.1435 486.045,55.1435 482.5,57.5 Z"/></g>
<g><path style="opacity:0.844" fill="#0084d0" d="M -0.5,40.5 C 0.495904,40.4142 1.32924,40.7476 2,41.5C 9.7916,52.9587 19.2916,62.792 30.5,71C 37.1593,74.4577 43.1593,73.4577 48.5,68C 55.8028,61.6984 62.8028,55.0317 69.5,48C 74.4177,47.6978 78.0844,49.8645 80.5,54.5C 71.3086,63.8582 61.642,72.6916 51.5,81C 46.5893,82.4924 41.5893,82.8257 36.5,82C 30.9839,79.4109 25.9839,76.0775 21.5,72C 13.554,63.8977 6.2207,55.3977 -0.5,46.5C -0.5,44.5 -0.5,42.5 -0.5,40.5 Z"/></g>
<g><path style="opacity:1" fill="#81bc24" d="M 446.5,44.5 C 446.196,45.1499 445.863,45.8165 445.5,46.5C 446.815,48.3159 448.315,49.9825 450,51.5C 450.667,53.1667 450.667,54.8333 450,56.5C 447.281,59.9222 444.114,62.4222 440.5,64C 434.017,58.6839 428.017,52.8505 422.5,46.5C 425.521,42.8123 428.854,39.4789 432.5,36.5C 434.371,36.1412 435.871,35.1412 437,33.5C 440.773,36.7635 443.94,40.4302 446.5,44.5 Z"/></g>
<g><path style="opacity:0.922" fill="#58b430" d="M 412.5,51.5 C 409.167,55.5 405.5,59.1667 401.5,62.5C 396.308,58.49 392.141,53.8233 389,48.5C 397.708,42.6249 405.541,43.6249 412.5,51.5 Z"/></g>
<g><path style="opacity:0.837" fill="#0084d0" d="M -0.5,50.5 C 6.88916,60.0655 14.8892,69.2322 23.5,78C 26.5,80.3333 29.5,82.6667 32.5,85C 40.5123,89.6638 48.5123,89.6638 56.5,85C 66.0643,77.7044 75.0643,69.7044 83.5,61C 88.5081,61.0069 91.3414,63.5069 92,68.5C 81.4051,80.1768 69.2384,89.5102 55.5,96.5C 50.5,96.5 45.5,96.5 40.5,96.5C 22.9099,87.2439 9.24325,73.9106 -0.5,56.5C -0.5,54.5 -0.5,52.5 -0.5,50.5 Z"/></g>
<g><path style="opacity:1" fill="#74b529" d="M 465.5,37.5 C 471.167,44.1667 476.833,50.8333 482.5,57.5C 479.105,61.8976 475.105,65.5643 470.5,68.5C 471.29,67.2058 472.29,66.0391 473.5,65C 470.236,61.2271 466.57,58.0604 462.5,55.5C 464.144,53.5193 465.81,51.5193 467.5,49.5C 465.187,47.3677 463.52,44.8677 462.5,42C 462.522,39.8171 463.522,38.3171 465.5,37.5 Z"/></g>
<g><path style="opacity:0.785" fill="#3c3a39" d="M 553.5,60.5 C 552.892,61.7997 552.225,63.1331 551.5,64.5C 551.919,65.6721 552.585,66.6721 553.5,67.5C 551.711,70.5561 551.044,73.8894 551.5,77.5C 550.5,77.5 549.5,77.5 548.5,77.5C 548.5,72.5 548.5,67.5 548.5,62.5C 540.5,61.8333 540.5,61.1667 548.5,60.5C 548.5,59.5 548.5,58.5 548.5,57.5C 546.396,57.7989 544.396,57.4656 542.5,56.5C 546.105,55.4614 549.772,54.7947 553.5,54.5C 553.374,56.1998 552.707,57.6998 551.5,59C 551.836,60.0299 552.503,60.5299 553.5,60.5 Z"/></g>
<g><path style="opacity:0.684" fill="#3c3a39" d="M 553.5,60.5 C 553.97,59.3065 554.97,58.6399 556.5,58.5C 559.911,58.403 561.245,60.0696 560.5,63.5C 561.5,63.5 562.5,63.5 563.5,63.5C 563.5,61.5 563.5,59.5 563.5,57.5C 560.5,57.5 557.5,57.5 554.5,57.5C 554.5,56.5 554.5,55.5 554.5,54.5C 558.466,55.1621 562.466,55.4955 566.5,55.5C 566.5,58.8333 566.5,62.1667 566.5,65.5C 555.833,66.1667 555.833,66.8333 566.5,67.5C 566.5,70.8333 566.5,74.1667 566.5,77.5C 562.116,77.8256 557.783,77.4922 553.5,76.5C 554.325,75.6143 555.325,75.281 556.5,75.5C 556.5,74.5 556.5,73.5 556.5,72.5C 555.325,72.719 554.325,72.3857 553.5,71.5C 558.132,69.2887 560.465,70.622 560.5,75.5C 561.5,75.5 562.5,75.5 563.5,75.5C 563.5,73.5 563.5,71.5 563.5,69.5C 560.5,69.5 557.5,69.5 554.5,69.5C 554.643,67.7376 554.309,66.0709 553.5,64.5C 554.325,63.6143 555.325,63.281 556.5,63.5C 556.5,62.5 556.5,61.5 556.5,60.5C 555.5,60.5 554.5,60.5 553.5,60.5 Z"/></g>
<g><path style="opacity:0.678" fill="#3c3a39" d="M 568.5,54.5 C 576.902,55.2396 585.235,55.5729 593.5,55.5C 593.5,62.8333 593.5,70.1667 593.5,77.5C 591.396,77.7989 589.396,77.4656 587.5,76.5C 589.401,70.3865 590.068,64.0532 589.5,57.5C 588.5,57.5 587.5,57.5 586.5,57.5C 586.473,64.1856 586.139,70.8523 585.5,77.5C 583.712,77.7852 582.045,77.4519 580.5,76.5C 581.744,73.3618 582.411,70.0284 582.5,66.5C 582.167,63.5 581.833,60.5 581.5,57.5C 576.761,57.2219 572.427,56.2219 568.5,54.5 Z"/></g>
<g><path style="opacity:0.646" fill="#3c3a39" d="M 595.5,54.5 C 596.5,54.5 597.5,54.5 598.5,54.5C 598.833,59.8333 599.167,59.8333 599.5,54.5C 600.833,54.5 602.167,54.5 603.5,54.5C 603.451,59.5388 604.118,59.7055 605.5,55C 606.5,54.3333 607.5,54.3333 608.5,55C 607.289,59.2117 607.289,63.3784 608.5,67.5C 608.02,69.9486 607.02,72.1153 605.5,74C 606.905,75.2692 608.571,75.7692 610.5,75.5C 610.855,72.9333 611.521,70.4333 612.5,68C 611.495,64.9712 610.495,61.9712 609.5,59C 611.433,58.2174 612.933,58.7174 614,60.5C 615.11,58.9632 616.61,58.2965 618.5,58.5C 618.15,61.7215 617.483,64.8882 616.5,68C 617.003,71.0088 618.003,73.8422 619.5,76.5C 616.871,78.0504 615.037,77.3838 614,74.5C 613.517,75.448 613.351,76.448 613.5,77.5C 607.051,77.2164 600.717,76.8831 594.5,76.5C 595.5,75.6667 596.5,74.8333 597.5,74C 595.98,72.1153 594.98,69.9486 594.5,67.5C 595.191,63.3643 595.524,59.0309 595.5,54.5 Z M 599.5,68.5 C 600.833,68.5 602.167,68.5 603.5,68.5C 603.5,69.5 603.5,70.5 603.5,71.5C 602.167,71.5 600.833,71.5 599.5,71.5C 599.5,70.5 599.5,69.5 599.5,68.5 Z"/></g>
<g><path style="opacity:0.607" fill="#3c3a39" d="M 609.5,54.5 C 622.732,56.1307 622.732,57.1307 609.5,57.5C 609.5,56.5 609.5,55.5 609.5,54.5 Z"/></g>
<g><path style="opacity:0.596" fill="#3c3a39" d="M 631.5,54.5 C 636.119,55.3136 640.786,55.6469 645.5,55.5C 645.5,57.1667 645.5,58.8333 645.5,60.5C 644.167,60.5 642.833,60.5 641.5,60.5C 641.5,59.5 641.5,58.5 641.5,57.5C 635.833,57.5 630.167,57.5 624.5,57.5C 624.5,58.5 624.5,59.5 624.5,60.5C 623.167,60.5 621.833,60.5 620.5,60.5C 620.5,58.8333 620.5,57.1667 620.5,55.5C 624.371,55.815 628.038,55.4816 631.5,54.5 Z"/></g>
<g><path style="opacity:0.669" fill="#3c3a39" d="M 646.5,54.5 C 649.247,54.1866 651.914,54.52 654.5,55.5C 652.584,62.6237 651.917,69.9571 652.5,77.5C 651.167,77.5 649.833,77.5 648.5,77.5C 649.02,69.6306 648.353,61.9639 646.5,54.5 Z"/></g>
<g><path style="opacity:0.638" fill="#3c3a39" d="M 656.5,54.5 C 659.434,55.2877 662.434,55.9544 665.5,56.5C 667.429,56.4604 669.262,56.1271 671,55.5C 671.483,56.448 671.649,57.448 671.5,58.5C 667.833,58.5 664.167,58.5 660.5,58.5C 660.5,64.1667 660.5,69.8333 660.5,75.5C 664.226,75.1774 667.893,75.5108 671.5,76.5C 666.544,77.4941 661.544,77.8275 656.5,77.5C 657.068,70.9468 656.401,64.6135 654.5,58.5C 655.853,57.4763 656.52,56.143 656.5,54.5 Z"/></g>
<g><path style="opacity:0.669" fill="#3c3a39" d="M 683.5,54.5 C 688.196,54.9033 692.863,55.57 697.5,56.5C 694.215,57.3236 690.882,57.8236 687.5,58C 690.121,63.3604 692.455,68.8604 694.5,74.5C 695.5,75.1667 696.5,75.8333 697.5,76.5C 695.305,77.7691 693.139,77.7691 691,76.5C 689.381,71.635 687.381,66.9683 685,62.5C 682.664,67.3435 680.831,72.3435 679.5,77.5C 677.076,77.8076 674.743,77.4742 672.5,76.5C 673.5,75.8333 674.5,75.1667 675.5,74.5C 677.833,69.1667 680.167,63.8333 682.5,58.5C 679.167,57.8333 675.833,57.1667 672.5,56.5C 676.313,55.8329 679.979,55.1663 683.5,54.5 Z"/></g>
<g><path style="opacity:0.663" fill="#3c3a39" d="M 723.5,59.5 C 723.5,60.1667 723.5,60.8333 723.5,61.5C 721.833,61.5 720.167,61.5 718.5,61.5C 718.714,59.8561 718.38,58.3561 717.5,57C 713.179,56.501 708.846,56.3343 704.5,56.5C 704.839,61.2411 702.839,62.5744 698.5,60.5C 700.104,58.8211 700.771,56.8211 700.5,54.5C 707.532,54.1697 714.532,54.503 721.5,55.5C 721.994,57.0255 722.661,58.3588 723.5,59.5 Z"/></g>
<g><path style="opacity:0.763" fill="#0084d0" d="M 147.5,57.5 C 148.833,57.5 150.167,57.5 151.5,57.5C 151.18,60.8984 151.513,64.2317 152.5,67.5C 156.934,65.5914 160.434,66.5914 163,70.5C 163.499,75.8229 163.666,81.1563 163.5,86.5C 161.833,86.5 160.167,86.5 158.5,86.5C 158.666,81.4889 158.499,76.4889 158,71.5C 155.46,70.1235 153.46,70.7902 152,73.5C 151.501,77.8206 151.334,82.1539 151.5,86.5C 150.167,86.5 148.833,86.5 147.5,86.5C 147.5,76.8333 147.5,67.1667 147.5,57.5 Z"/></g>
<g><path style="opacity:0.729" fill="#0084d0" d="M 265.5,57.5 C 267.167,57.5 268.833,57.5 270.5,57.5C 270.335,60.8499 270.502,64.1832 271,67.5C 280.839,66.0679 284.505,70.4012 282,80.5C 281.315,83.0573 279.815,84.8906 277.5,86C 273.356,85.978 269.356,86.1447 265.5,86.5C 265.5,76.8333 265.5,67.1667 265.5,57.5 Z M 272.5,70.5 C 274.17,70.7512 275.67,71.4178 277,72.5C 277.667,75.1667 277.667,77.8333 277,80.5C 272.519,83.5017 270.353,82.1684 270.5,76.5C 270.676,74.2147 271.343,72.2147 272.5,70.5 Z"/></g>
<g><path style="opacity:0.67" fill="#0084d0" d="M 291.5,57.5 C 293.167,57.5 294.833,57.5 296.5,57.5C 296.5,67.1667 296.5,76.8333 296.5,86.5C 294.833,86.5 293.167,86.5 291.5,86.5C 291.5,76.8333 291.5,67.1667 291.5,57.5 Z"/></g>
<g><path style="opacity:0.732" fill="#0084d0" d="M 127.5,59.5 C 135.544,57.8601 141.544,60.5267 145.5,67.5C 142.119,69.1202 139.453,68.2868 137.5,65C 126.65,62.5163 122.484,66.6829 125,77.5C 130.442,83.002 135.609,82.8354 140.5,77C 142.259,76.2025 143.926,76.3691 145.5,77.5C 141.31,85.397 134.977,87.897 126.5,85C 120.03,80.874 117.863,75.0407 120,67.5C 122.028,64.3078 124.528,61.6411 127.5,59.5 Z"/></g>
<g><path style="opacity:0.715" fill="#0084d0" d="M 166.5,59.5 C 167.833,59.5 169.167,59.5 170.5,59.5C 170.5,61.1667 170.5,62.8333 170.5,64.5C 169.167,64.5 167.833,64.5 166.5,64.5C 166.5,62.8333 166.5,61.1667 166.5,59.5 Z"/></g>
<g><path style="opacity:0.775" fill="#0084d0" d="M 216.5,59.5 C 218.604,59.2011 220.604,59.5344 222.5,60.5C 224.447,66.0087 226.78,71.342 229.5,76.5C 231.831,71.1765 234.164,65.8431 236.5,60.5C 238.396,59.5344 240.396,59.2011 242.5,59.5C 242.5,68.5 242.5,77.5 242.5,86.5C 240.833,86.5 239.167,86.5 237.5,86.5C 237.666,81.4889 237.499,76.4889 237,71.5C 235,76.1667 233,80.8333 231,85.5C 229.989,86.3366 228.822,86.67 227.5,86.5C 225.908,80.644 223.742,74.9773 221,69.5C 220.501,75.1569 220.334,80.8236 220.5,86.5C 219.167,86.5 217.833,86.5 216.5,86.5C 216.5,77.5 216.5,68.5 216.5,59.5 Z"/></g>
<g><path style="opacity:0.703" fill="#0084d0" d="M 284.5,59.5 C 285.833,59.5 287.167,59.5 288.5,59.5C 288.5,61.1667 288.5,62.8333 288.5,64.5C 287.167,64.5 285.833,64.5 284.5,64.5C 284.5,62.8333 284.5,61.1667 284.5,59.5 Z"/></g>
<g><path style="opacity:0.718" fill="#3c3a39" d="M 568.5,60.5 C 572.555,60.1758 576.555,60.5091 580.5,61.5C 578.314,62.2208 576.147,62.8875 574,63.5C 573.501,67.4862 573.334,71.4862 573.5,75.5C 574.5,75.5 575.5,75.5 576.5,75.5C 576.5,72.1667 576.5,68.8333 576.5,65.5C 577.5,65.5 578.5,65.5 579.5,65.5C 579.5,69.5 579.5,73.5 579.5,77.5C 576.167,77.5 572.833,77.5 569.5,77.5C 569.255,72.9464 569.588,68.4464 570.5,64C 569.571,62.9231 568.904,61.7564 568.5,60.5 Z"/></g>
<g><path style="opacity:0.663" fill="#3c3a39" d="M 621.5,61.5 C 628.833,61.5 636.167,61.5 643.5,61.5C 643.617,63.4835 642.95,65.1502 641.5,66.5C 646.694,68.0583 646.694,69.0583 641.5,69.5C 641.5,72.1667 641.5,74.8333 641.5,77.5C 634.8,77.83 628.134,77.4967 621.5,76.5C 627.128,75.5046 632.794,75.1712 638.5,75.5C 638.5,73.5 638.5,71.5 638.5,69.5C 632.463,69.8293 626.463,69.4959 620.5,68.5C 625.802,67.6705 631.136,67.1705 636.5,67C 637.167,66 637.833,65 638.5,64C 632.412,64.1256 626.745,63.2923 621.5,61.5 Z"/></g>
<g><path style="opacity:0.566" fill="#3c3a39" d="M 723.5,62.5 C 723.5,63.1667 723.5,63.8333 723.5,64.5C 690.167,63.8333 690.167,63.1667 723.5,62.5 Z"/></g>
<g><path style="opacity:0.931" fill="#73ba29" d="M 412.5,51.5 C 418.5,56.8333 424.167,62.5 429.5,68.5C 425.833,71.8333 422.167,75.1667 418.5,78.5C 412.203,73.8711 406.537,68.5377 401.5,62.5C 405.5,59.1667 409.167,55.5 412.5,51.5 Z"/></g>
<g><path style="opacity:0.646" fill="#3c3a39" d="M 543.5,63.5 C 544.5,63.5 545.5,63.5 546.5,63.5C 546.666,67.8461 546.499,72.1794 546,76.5C 544.989,77.3366 543.822,77.67 542.5,77.5C 543.229,72.8696 543.563,68.2029 543.5,63.5 Z"/></g>
<g><path style="opacity:0.531" fill="#4dab77" d="M 348.5,49.5 C 350.45,54.7351 351.117,60.4018 350.5,66.5C 349.833,66.5 349.167,66.5 348.5,66.5C 348.5,60.8333 348.5,55.1667 348.5,49.5 Z"/></g>
<g><path style="opacity:0.896" fill="#0093dd" d="M 499.5,75.5 C 495.833,72.1667 492.167,68.8333 488.5,65.5C 493.938,61.7105 499.605,61.5439 505.5,65C 507.007,65.8373 507.507,67.0039 507,68.5C 504.63,71.0386 502.13,73.3719 499.5,75.5 Z"/></g>
<g><path style="opacity:1" fill="#4ba434" d="M 462.5,55.5 C 466.57,58.0604 470.236,61.2271 473.5,65C 472.29,66.0391 471.29,67.2058 470.5,68.5C 467.5,72.1667 464.167,75.5 460.5,78.5C 458.69,74.0075 455.69,70.3408 451.5,67.5C 449.408,69.6049 447.075,71.2716 444.5,72.5C 449.869,66.1295 455.869,60.4629 462.5,55.5 Z"/></g>
<g><path style="opacity:0.751" fill="#0084d0" d="M 179.5,66.5 C 182.602,66.154 185.435,66.8207 188,68.5C 189.41,74.3792 189.91,80.3792 189.5,86.5C 187.833,86.5 186.167,86.5 184.5,86.5C 184.666,81.4889 184.499,76.4889 184,71.5C 181.684,70.6327 179.684,71.2993 178,73.5C 177.501,77.8206 177.334,82.1539 177.5,86.5C 176.167,86.5 174.833,86.5 173.5,86.5C 173.5,80.1667 173.5,73.8333 173.5,67.5C 175.735,67.7947 177.735,67.4614 179.5,66.5 Z"/></g>
<g><path style="opacity:0.751" fill="#0084d0" d="M 194.5,66.5 C 198.257,66.0708 201.757,66.7375 205,68.5C 206.41,74.3792 206.91,80.3792 206.5,86.5C 203.47,85.4708 200.47,85.4708 197.5,86.5C 191.449,85.5223 189.615,82.1889 192,76.5C 194.75,74.2824 197.917,72.9491 201.5,72.5C 200.562,71.4471 199.395,70.7804 198,70.5C 196.234,71.2335 194.401,71.5668 192.5,71.5C 192.365,69.4458 193.032,67.7791 194.5,66.5 Z M 197.5,77.5 C 200.183,77.2266 201.683,78.2266 202,80.5C 199.652,82.9326 197.485,82.9326 195.5,80.5C 196.193,79.4822 196.859,78.4822 197.5,77.5 Z"/></g>
<g><path style="opacity:0.742" fill="#0084d0" d="M 250.5,66.5 C 261.171,66.3241 265.338,71.3241 263,81.5C 256.508,88.4255 250.508,88.0921 245,80.5C 243.025,74.1772 244.858,69.5105 250.5,66.5 Z M 252.5,70.5 C 258.356,70.854 260.523,73.854 259,79.5C 253.927,83.8638 250.427,82.8638 248.5,76.5C 248.67,73.6736 250.003,71.6736 252.5,70.5 Z"/></g>
<g><path style="opacity:0.755" fill="#0084d0" d="M 303.5,66.5 C 311.5,65.8333 315.167,69.5 314.5,77.5C 310.486,77.3345 306.486,77.5012 302.5,78C 305.396,82.5609 309.396,83.7276 314.5,81.5C 314.773,83.451 314.107,84.951 312.5,86C 300.829,87.9934 296.329,83.16 299,71.5C 300.025,69.313 301.525,67.6464 303.5,66.5 Z M 305.5,70.5 C 307.09,70.6282 308.423,71.2949 309.5,72.5C 307.579,73.641 305.579,73.8077 303.5,73C 304.381,72.2917 305.047,71.4584 305.5,70.5 Z"/></g>
<g><path style="opacity:0.925" fill="#0079c6" d="M 488.5,65.5 C 492.167,68.8333 495.833,72.1667 499.5,75.5C 496.526,78.1379 493.526,80.8046 490.5,83.5C 486.808,80.1383 483.141,76.8049 479.5,73.5C 482.5,70.8333 485.5,68.1667 488.5,65.5 Z"/></g>
<g><path style="opacity:0.865" fill="#0084d0" d="M 166.5,67.5 C 167.833,67.5 169.167,67.5 170.5,67.5C 170.5,73.8333 170.5,80.1667 170.5,86.5C 169.167,86.5 167.833,86.5 166.5,86.5C 166.5,80.1667 166.5,73.8333 166.5,67.5 Z"/></g>
<g><path style="opacity:0.851" fill="#0084d0" d="M 284.5,67.5 C 285.833,67.5 287.167,67.5 288.5,67.5C 288.5,73.8333 288.5,80.1667 288.5,86.5C 287.167,86.5 285.833,86.5 284.5,86.5C 284.5,80.1667 284.5,73.8333 284.5,67.5 Z"/></g>
<g><path style="opacity:0.641" fill="#3c3a39" d="M 723.5,67.5 C 723.5,68.1667 723.5,68.8333 723.5,69.5C 717.167,69.5 710.833,69.5 704.5,69.5C 704.5,71.5 704.5,73.5 704.5,75.5C 709.5,75.5 714.5,75.5 719.5,75.5C 719.579,74.0695 719.246,72.7362 718.5,71.5C 719.689,70.5713 721.022,70.238 722.5,70.5C 722.5,72.8333 722.5,75.1667 722.5,77.5C 715.167,77.5 707.833,77.5 700.5,77.5C 700.927,74.2123 700.26,71.2123 698.5,68.5C 706.807,67.5021 715.14,67.1688 723.5,67.5 Z"/></g>
<g><path style="opacity:1" fill="#22953a" d="M 460.5,78.5 C 459.5,80.1667 458.167,81.5 456.5,82.5C 446.006,86.2548 438.673,82.9215 434.5,72.5C 437.799,73.7475 441.133,73.7475 444.5,72.5C 447.075,71.2716 449.408,69.6049 451.5,67.5C 455.69,70.3408 458.69,74.0075 460.5,78.5 Z"/></g>
<g><path style="opacity:0.886" fill="#005aab" d="M 470.5,73.5 C 473.535,74.7335 476.535,74.7335 479.5,73.5C 483.141,76.8049 486.808,80.1383 490.5,83.5C 489.167,85.5 487.5,87.1667 485.5,88.5C 480.167,83.8333 475.167,78.8333 470.5,73.5 Z"/></g>
<g><path style="opacity:1" fill="#209e98" d="M 348.5,31.5 C 349.167,31.5 349.833,31.5 350.5,31.5C 350.334,36.1785 350.501,40.8452 351,45.5C 352.011,46.3366 353.178,46.67 354.5,46.5C 354.5,54.5 354.5,62.5 354.5,70.5C 353.5,70.5 352.5,70.5 351.5,70.5C 351.825,78.0191 351.492,85.3524 350.5,92.5C 350.5,83.8333 350.5,75.1667 350.5,66.5C 351.117,60.4018 350.45,54.7351 348.5,49.5C 348.5,43.5 348.5,37.5 348.5,31.5 Z"/></g>
<g><path style="opacity:0.92" fill="#00439a" d="M 470.5,73.5 C 475.167,78.8333 480.167,83.8333 485.5,88.5C 483.833,90.8333 481.833,92.8333 479.5,94.5C 474.167,89.8333 469.167,84.8333 464.5,79.5C 466.167,77.1667 468.167,75.1667 470.5,73.5 Z"/></g>
<g><path style="opacity:0.933" fill="#043491" d="M 464.5,79.5 C 469.167,84.8333 474.167,89.8333 479.5,94.5C 478.833,95.1667 478.167,95.8333 477.5,96.5C 476.167,96.5 474.833,96.5 473.5,96.5C 469.836,92.0027 465.669,88.0027 461,84.5C 461.077,82.2285 462.243,80.5618 464.5,79.5 Z"/></g>
<g><path style="opacity:0.456" fill="#3e3a38" d="M 543.5,81.5 C 545.541,81.8541 547.374,81.8541 549,81.5C 549.483,82.448 549.649,83.448 549.5,84.5C 550.5,84.5 551.5,84.5 552.5,84.5C 553.833,84.8333 553.833,85.1667 552.5,85.5C 551.5,85.5 550.5,85.5 549.5,85.5C 549.587,88.5983 549.087,88.9316 548,86.5C 546.933,88.2826 545.433,88.7826 543.5,88C 542.232,85.8368 542.232,83.6702 543.5,81.5 Z M 544.5,83.5 C 548.88,84.0992 549.214,85.0992 545.5,86.5C 543.481,85.8671 543.147,84.8671 544.5,83.5 Z"/></g>
<g><path style="opacity:0.579" fill="#3e3a38" d="M 554.5,81.5 C 555.629,83.6282 555.796,85.9615 555,88.5C 554.503,86.1902 554.337,83.8568 554.5,81.5 Z"/></g>
<g><path style="opacity:0.427" fill="#3e3a38" d="M 556.5,81.5 C 558.074,81.9371 559.241,82.9371 560,84.5C 560.914,80.8149 561.581,81.1482 562,85.5C 564.691,80.2294 566.525,80.7294 567.5,87C 567.167,87.5 566.833,88 566.5,88.5C 565.833,87.8333 565.167,87.1667 564.5,86.5C 561.957,89.1604 559.791,88.8271 558,85.5C 557.667,86.5 557.333,87.5 557,88.5C 556.503,86.1902 556.337,83.8568 556.5,81.5 Z"/></g>
<g><path style="opacity:0.377" fill="#3e3a38" d="M 569.5,81.5 C 571.074,81.9371 572.241,82.9371 573,84.5C 573.483,83.552 573.649,82.552 573.5,81.5C 578.136,81.8183 582.803,81.8183 587.5,81.5C 587.5,83.8333 587.5,86.1667 587.5,88.5C 583.438,87.8643 579.438,87.8643 575.5,88.5C 574.808,87.9747 574.308,87.3081 574,86.5C 572.951,88.1066 571.451,88.7733 569.5,88.5C 569.5,86.1667 569.5,83.8333 569.5,81.5 Z M 578.5,83.5 C 580.465,83.9483 580.798,84.9483 579.5,86.5C 577.481,85.8671 577.147,84.8671 578.5,83.5 Z"/></g>
<g><path style="opacity:0.579" fill="#3e3a38" d="M 588.5,81.5 C 589.629,83.6282 589.796,85.9615 589,88.5C 588.503,86.1902 588.337,83.8568 588.5,81.5 Z"/></g>
<g><path style="opacity:0.394" fill="#3e3a38" d="M 590.5,81.5 C 591.451,82.9187 591.784,84.5853 591.5,86.5C 592.5,86.5 593.5,86.5 594.5,86.5C 594.5,84.8333 594.5,83.1667 594.5,81.5C 596.288,81.2148 597.955,81.5481 599.5,82.5C 595.639,83.5976 595.639,84.4309 599.5,85C 595.639,85.5691 595.639,86.4024 599.5,87.5C 596.572,88.4841 593.572,88.8174 590.5,88.5C 590.5,86.1667 590.5,83.8333 590.5,81.5 Z"/></g>
<g><path style="opacity:0.45" fill="#3e3a38" d="M 602.5,81.5 C 607.328,81.3852 608.661,83.5519 606.5,88C 605.207,88.49 603.873,88.6567 602.5,88.5C 602.5,86.1667 602.5,83.8333 602.5,81.5 Z M 603.5,83.5 C 606.674,83.9522 607.007,84.9522 604.5,86.5C 603.614,85.675 603.281,84.675 603.5,83.5 Z"/></g>
<g><path style="opacity:0.36" fill="#3e3a38" d="M 608.5,81.5 C 609.222,81.9175 609.722,82.5842 610,83.5C 610.674,82.4216 611.674,81.7549 613,81.5C 616.406,81.5419 619.906,81.8752 623.5,82.5C 622.173,84.3113 621.173,86.3113 620.5,88.5C 619.702,86.9223 619.202,85.2556 619,83.5C 618.798,85.2556 618.298,86.9223 617.5,88.5C 615.657,88.2448 613.657,88.0781 611.5,88C 610.285,85.9045 609.451,86.0712 609,88.5C 608.503,86.1902 608.337,83.8568 608.5,81.5 Z M 612.5,85.5 C 611.957,85.44 611.624,85.1067 611.5,84.5C 612.365,83.4173 613.365,83.2506 614.5,84C 613.584,84.2784 612.918,84.7784 612.5,85.5 Z"/></g>
<g><path style="opacity:0.355" fill="#3e3a38" d="M 624.5,81.5 C 625.5,81.5 626.5,81.5 627.5,81.5C 627.596,85.3107 628.262,85.3107 629.5,81.5C 630.452,83.0453 630.785,84.712 630.5,86.5C 631.5,86.5 632.5,86.5 633.5,86.5C 633.5,84.8333 633.5,83.1667 633.5,81.5C 635.924,81.1924 638.257,81.5258 640.5,82.5C 639.833,83.5 639.167,84.5 638.5,85.5C 638.833,85.8333 639.167,86.1667 639.5,86.5C 640.95,85.1502 641.617,83.4835 641.5,81.5C 642.5,81.5 643.5,81.5 644.5,81.5C 644.586,83.677 645.253,85.677 646.5,87.5C 646.167,87.8333 645.833,88.1667 645.5,88.5C 644.346,86.1441 643.013,85.9774 641.5,88C 636.148,88.9955 630.981,88.4955 626,86.5C 625.05,87.0223 624.216,87.689 623.5,88.5C 623.167,88.1667 622.833,87.8333 622.5,87.5C 623.747,85.677 624.414,83.677 624.5,81.5 Z M 635.5,83.5 C 638.001,83.5109 638.168,84.1776 636,85.5C 635.536,84.9056 635.369,84.2389 635.5,83.5 Z"/></g>
<g><path style="opacity:0.4" fill="#3e3a38" d="M 645.5,81.5 C 648.394,81.0423 650.894,81.709 653,83.5C 653.674,82.4216 654.674,81.7549 656,81.5C 657.669,82.1662 659.169,82.1662 660.5,81.5C 661.799,82.09 662.632,83.09 663,84.5C 663.897,80.5858 664.397,80.7524 664.5,85C 663.684,89.296 662.517,89.1294 661,84.5C 660.667,85.8333 660.333,87.1667 660,88.5C 658.355,88.3068 656.521,88.1402 654.5,88C 653.285,85.9045 652.451,86.0712 652,88.5C 651.115,81.9216 649.948,81.9216 648.5,88.5C 647.593,86.0611 646.593,83.7278 645.5,81.5 Z M 654.5,83.5 C 655.5,83.5 656.5,83.5 657.5,83.5C 657.5,84.5 657.5,85.5 657.5,86.5C 656.5,86.5 655.5,86.5 654.5,86.5C 654.5,85.5 654.5,84.5 654.5,83.5 Z"/></g>
<g><path style="opacity:0.363" fill="#3e3a38" d="M 723.5,81.5 C 723.5,82.1667 723.5,82.8333 723.5,83.5C 719.5,83.8333 719.5,84.1667 723.5,84.5C 723.5,84.8333 723.5,85.1667 723.5,85.5C 719.5,85.8333 719.5,86.1667 723.5,86.5C 723.5,87.1667 723.5,87.8333 723.5,88.5C 719.438,87.8643 715.438,87.8643 711.5,88.5C 710.201,87.91 709.368,86.91 709,85.5C 708.517,86.448 708.351,87.448 708.5,88.5C 705.482,88.6646 702.482,88.498 699.5,88C 698.126,84.5899 697.459,84.7566 697.5,88.5C 695.167,88.5 692.833,88.5 690.5,88.5C 690.5,86.8333 690.5,85.1667 690.5,83.5C 686.107,83.4568 685.774,83.9568 689.5,85C 688.552,85.4828 687.552,85.6495 686.5,85.5C 686.5,86.5 686.5,87.5 686.5,88.5C 684.61,88.7035 683.11,88.0368 682,86.5C 681.692,87.3081 681.192,87.9747 680.5,88.5C 678.657,88.2448 676.657,88.0781 674.5,88C 673.282,86.5839 671.949,86.7506 670.5,88.5C 669.558,88.3918 668.725,88.0585 668,87.5C 667.257,85.5594 667.424,83.7261 668.5,82C 672.519,81.8936 676.519,81.7269 680.5,81.5C 681.799,82.09 682.632,83.09 683,84.5C 683.483,83.552 683.649,82.552 683.5,81.5C 690.819,81.6944 697.985,81.6944 705,81.5C 707.034,81.3536 708.701,82.0203 710,83.5C 710.308,82.6919 710.808,82.0253 711.5,81.5C 715.438,82.1357 719.438,82.1357 723.5,81.5 Z M 669.5,83.5 C 672.674,83.9522 673.007,84.9522 670.5,86.5C 668.481,85.8671 668.147,84.8671 669.5,83.5 Z M 675.5,83.5 C 677.465,83.9483 677.798,84.9483 676.5,86.5C 674.481,85.8671 674.147,84.8671 675.5,83.5 Z M 714.5,83.5 C 718.88,84.0992 719.214,85.0992 715.5,86.5C 714.614,85.675 714.281,84.675 714.5,83.5 Z"/></g>
<g><path style="opacity:0.856" fill="#89c120" d="M 429.5,68.5 C 431.191,69.8637 432.858,71.197 434.5,72.5C 438.673,82.9215 446.006,86.2548 456.5,82.5C 452.239,88.7715 446.573,93.1048 439.5,95.5C 436.972,95.2372 434.639,94.4039 432.5,93C 427.63,88.2979 422.963,83.4646 418.5,78.5C 422.167,75.1667 425.833,71.8333 429.5,68.5 Z"/></g>
<g><path style="opacity:0.531" fill="#7cbb45" d="M 348.5,66.5 C 349.167,66.5 349.833,66.5 350.5,66.5C 350.5,75.1667 350.5,83.8333 350.5,92.5C 350.5,92.8333 350.5,93.1667 350.5,93.5C 348.529,84.8955 347.862,75.8955 348.5,66.5 Z"/></g>
<g><path style="opacity:0.724" fill="#028bc4" d="M 354.5,70.5 C 354.666,77.8409 354.5,85.1742 354,92.5C 353.59,93.9007 353.09,95.234 352.5,96.5C 351.833,96.5 351.167,96.5 350.5,96.5C 350.5,95.5 350.5,94.5 350.5,93.5C 350.5,93.1667 350.5,92.8333 350.5,92.5C 351.492,85.3524 351.825,78.0191 351.5,70.5C 352.5,70.5 353.5,70.5 354.5,70.5 Z"/></g>
</svg>
