<?xml version="1.0" standalone="no"?>
<!DOCTYPE svg PUBLIC "-//W3C//DTD SVG 20010904//EN"
 "http://www.w3.org/TR/2001/REC-SVG-20010904/DTD/svg10.dtd">
<svg version="1.0" xmlns="http://www.w3.org/2000/svg"
 width="724.000000pt" height="97.000000pt" viewBox="0 0 724.000000 97.000000"
 preserveAspectRatio="xMidYMid meet">

<g transform="translate(0.000000,97.000000) scale(0.100000,-0.100000)"
fill="#000000" stroke="none">
<path d="M429 957 c-25 -7 -66 -25 -91 -40 -42 -25 -206 -164 -255 -219 l-23
-24 29 -29 30 -28 34 29 c19 16 79 69 133 117 53 49 115 97 136 108 81 41 166
35 249 -20 65 -43 177 -155 243 -244 32 -42 60 -77 62 -77 10 0 -29 77 -63
124 -91 128 -206 237 -299 284 -54 27 -128 35 -185 19z"/>
<path d="M3507 953 c-4 -3 -6 -92 -5 -197 l2 -191 5 195 c7 216 7 202 -2 193z"/>
<path d="M4230 835 l-125 -125 36 -36 c46 -45 68 -41 149 32 60 54 102 68 126
44 7 -7 27 7 59 41 l50 51 -65 59 c-36 32 -74 59 -85 59 -13 0 -67 -47 -145
-125z"/>
<path d="M2460 910 c0 -5 -20 -34 -45 -65 -38 -47 -43 -56 -29 -62 12 -4 26 4
45 25 26 29 34 32 89 32 33 0 60 -4 60 -8 0 -11 -54 -62 -65 -62 -5 0 -18 9
-30 20 -19 18 -24 19 -34 6 -10 -12 -9 -17 8 -28 12 -7 21 -16 21 -19 0 -4
-23 -16 -51 -28 -41 -18 -48 -25 -39 -36 10 -12 18 -11 56 5 24 11 44 16 44
13 0 -15 -53 -73 -86 -93 -32 -21 -34 -24 -20 -38 14 -14 20 -13 58 18 24 19
47 40 51 47 5 8 28 13 57 13 61 0 65 -14 16 -68 l-34 -37 -26 24 c-20 19 -29
22 -38 13 -9 -9 -8 -16 5 -30 9 -10 17 -21 17 -25 0 -9 -69 -27 -103 -27 -38
0 -30 -24 10 -28 41 -4 137 34 179 71 36 31 74 94 74 122 0 12 -13 15 -60 15
-49 0 -58 3 -54 15 4 10 0 15 -10 15 -10 0 6 22 44 59 36 35 60 67 60 80 0 19
-6 21 -70 21 -62 0 -70 2 -70 19 0 10 -7 21 -15 25 -8 3 -15 1 -15 -4z"/>
<path d="M1380 870 l0 -40 -90 0 -90 0 0 -115 0 -114 88 -3 87 -3 3 -62 c3
-54 6 -63 22 -63 16 0 19 9 22 63 l3 62 88 3 87 3 0 114 0 115 -90 0 -90 0 0
40 c0 33 -3 40 -20 40 -17 0 -20 -7 -20 -40z m0 -160 l0 -80 -70 0 -70 0 0 80
0 80 70 0 70 0 0 -80z m180 0 l0 -80 -70 0 -70 0 0 80 0 80 70 0 70 0 0 -80z"/>
<path d="M2990 865 c0 -43 -1 -45 -30 -45 -23 0 -30 -4 -30 -20 0 -16 7 -20
31 -20 l32 0 -6 -76 c-8 -84 -32 -150 -72 -190 -21 -21 -24 -29 -14 -40 10
-13 16 -11 41 13 51 48 71 99 77 198 l6 90 44 3 44 3 -7 -122 c-4 -67 -9 -126
-12 -131 -3 -4 -21 -8 -40 -8 -28 0 -35 -4 -32 -17 2 -13 15 -19 45 -21 62 -5
69 13 77 191 l6 147 -60 0 -60 0 0 45 c0 38 -3 45 -20 45 -17 0 -20 -7 -20
-45z"/>
<path d="M1710 690 l0 -210 200 0 200 0 0 210 0 210 -200 0 -200 0 0 -210z
m360 -5 l0 -175 -160 0 -160 0 0 175 0 175 160 0 160 0 0 -175z"/>
<path d="M1790 805 c0 -11 12 -15 50 -15 l50 0 0 -35 0 -35 -50 0 c-38 0 -50
-4 -50 -15 0 -11 12 -15 50 -15 l50 0 0 -50 0 -50 -55 0 c-42 0 -55 -3 -55
-15 0 -13 21 -15 130 -15 109 0 130 2 130 15 0 12 -13 15 -55 15 l-55 0 0 50
0 50 45 0 c33 0 45 4 45 15 0 11 -12 15 -45 15 -45 0 -45 0 -45 35 l0 35 50 0
c38 0 50 4 50 15 0 13 -20 15 -120 15 -100 0 -120 -2 -120 -15z"/>
<path d="M1963 669 c-9 -11 -6 -21 11 -42 18 -23 25 -26 34 -15 8 11 6 21 -11
42 -19 23 -25 26 -34 15z"/>
<path d="M2273 878 c-43 -7 -63 -14 -63 -24 0 -9 12 -14 36 -14 34 0 35 -1 32
-32 -3 -30 -6 -33 -40 -36 -51 -4 -53 -32 -3 -32 l35 0 -17 -42 c-9 -24 -26
-58 -36 -76 -17 -29 -18 -35 -5 -48 13 -13 17 -10 34 26 10 22 22 40 27 40 4
0 7 -38 7 -85 0 -69 3 -85 15 -85 12 0 15 17 15 95 0 52 3 95 7 95 3 0 15 -8
25 -17 15 -13 21 -14 31 -4 9 10 4 19 -26 44 -45 39 -47 57 -7 57 39 0 41 27
3 32 -24 3 -28 8 -31 40 -3 34 -1 37 25 40 17 2 29 10 31 21 4 19 -1 19 -95 5z"/>
<path d="M2730 855 c0 -12 17 -15 95 -15 78 0 95 3 95 15 0 12 -17 15 -95 15
-78 0 -95 -3 -95 -15z"/>
<path d="M4585 831 c-16 -10 -50 -40 -75 -65 l-44 -46 49 -50 50 -49 74 66
c69 61 77 65 113 60 33 -4 36 -3 28 11 -49 84 -130 114 -195 73z"/>
<path d="M5446 834 c-13 -13 -16 -42 -16 -158 0 -126 2 -145 18 -159 26 -24
372 -26 372 -2 0 12 -27 15 -162 17 l-163 3 -3 134 c-2 90 1 138 9 147 9 11
46 14 165 14 96 0 154 4 154 10 0 6 -66 10 -179 10 -150 0 -182 -3 -195 -16z"/>
<path d="M5902 678 l3 -173 32 -3 32 -3 3 131 3 132 50 -61 c33 -40 57 -61 72
-61 13 0 41 22 77 63 l55 62 1 -132 0 -133 30 0 30 0 0 175 0 175 -37 0 c-34
0 -44 -7 -98 -65 l-60 -66 -54 66 c-51 62 -56 65 -98 65 l-43 0 2 -172z"/>
<path d="M6380 675 l0 -175 164 0 c159 0 166 1 192 24 26 22 28 29 32 119 5
116 -2 161 -30 187 -20 18 -36 20 -190 20 l-168 0 0 -175z m298 139 c21 -14
22 -22 22 -138 0 -81 -4 -126 -12 -134 -8 -8 -52 -12 -130 -12 l-118 0 0 143
c0 79 3 147 7 150 3 4 52 7 107 7 76 0 107 -4 124 -16z"/>
<path d="M6866 834 c-13 -13 -16 -42 -16 -158 0 -126 2 -145 18 -159 26 -24
372 -26 372 -2 0 13 -24 15 -160 15 l-161 0 3 148 3 147 158 3 c223 4 205 22
-22 22 -150 0 -182 -3 -195 -16z"/>
<path d="M497 816 c-44 -16 -100 -61 -222 -178 l-90 -86 29 -31 c17 -17 35
-31 41 -31 6 0 64 49 130 110 175 160 216 175 310 110 43 -30 223 -213 251
-255 17 -26 34 -33 34 -13 0 28 -154 210 -243 286 -102 88 -170 113 -240 88z"/>
<path d="M2720 735 c0 -10 11 -15 35 -15 34 0 35 -1 29 -27 -4 -16 -20 -57
-35 -92 -30 -67 -35 -91 -19 -91 5 0 35 7 67 15 31 8 72 15 90 15 39 0 39 3
12 66 -24 58 -22 56 -42 48 -14 -5 -14 -9 -1 -39 8 -19 14 -36 14 -38 0 -6
-91 -29 -96 -25 -2 2 11 41 28 86 l32 82 53 0 c40 0 53 4 53 15 0 12 -19 15
-110 15 -91 0 -110 -3 -110 -15z"/>
<path d="M10 526 c0 -50 243 -312 331 -356 61 -31 124 -30 180 2 25 15 98 77
163 139 l118 113 -33 28 c-18 15 -38 28 -44 28 -5 -1 -66 -52 -135 -115 -78
-71 -141 -121 -167 -131 -68 -27 -115 -3 -239 120 -55 56 -117 121 -137 146
-28 34 -37 40 -37 26z"/>
<path d="M10 419 c0 -31 103 -171 192 -260 80 -80 165 -135 232 -150 43 -9 63
-8 116 5 77 20 114 43 222 139 44 40 97 86 117 104 l36 32 -32 32 -31 32 -116
-104 c-64 -57 -135 -116 -158 -131 -80 -54 -156 -60 -244 -18 -58 28 -209 172
-276 262 -53 70 -58 76 -58 57z"/>
<path d="M5458 403 c26 -4 32 -9 32 -28 0 -19 -6 -24 -32 -28 l-33 -4 33 -1
32 -2 0 -70 c0 -56 3 -70 15 -70 11 0 15 12 16 43 0 23 1 70 2 105 l2 62 -50
-2 c-36 -1 -41 -2 -17 -5z"/>
<path d="M5554 402 c4 -7 25 -12 47 -12 38 0 39 -1 39 -36 0 -28 -3 -35 -17
-32 -10 2 -19 13 -21 26 -3 17 -10 22 -30 22 -23 -1 -25 -2 -9 -11 9 -5 17
-16 17 -24 0 -7 -8 -16 -17 -18 -10 -3 10 -5 45 -6 l62 -1 0 45 0 45 -37 0
c-21 0 -49 3 -62 7 -17 4 -22 3 -17 -5z"/>
<path d="M5718 403 c18 -2 45 -2 60 0 15 2 0 4 -33 4 -33 0 -45 -2 -27 -4z"/>
<path d="M5830 400 c-11 -7 -12 -10 -2 -10 11 0 12 -17 7 -87 -4 -49 -13 -91
-19 -95 -6 -4 1 -8 17 -8 l27 0 0 95 c0 88 1 95 20 95 19 0 20 -7 20 -89 0
-62 -4 -91 -12 -94 -7 -3 -1 -6 15 -6 l27 -1 0 100 c0 97 -1 100 -22 100 -13
0 -32 3 -43 5 -11 3 -27 1 -35 -5z"/>
<path d="M5963 396 c3 -8 1 -17 -6 -20 -7 -2 3 -5 21 -5 27 -1 32 -5 32 -26 0
-14 5 -25 10 -25 6 0 10 11 10 25 0 21 5 25 29 25 24 0 28 3 24 20 -6 23 -23
27 -23 5 0 -8 -7 -15 -15 -15 -8 0 -15 7 -15 15 0 8 -4 15 -10 15 -5 0 -10 -7
-10 -15 0 -8 -7 -15 -15 -15 -8 0 -15 7 -15 15 0 8 -5 15 -11 15 -6 0 -9 -6
-6 -14z"/>
<path d="M6110 399 c0 -5 19 -9 42 -9 49 0 47 5 -4 13 -21 3 -38 2 -38 -4z"/>
<path d="M6273 403 c-38 -3 -53 -8 -53 -19 0 -7 5 -14 10 -14 6 0 10 5 10 10
0 6 38 10 95 10 57 0 95 -4 95 -10 0 -5 5 -10 10 -10 6 0 10 7 10 15 0 11 -11
15 -42 15 -24 0 -52 2 -63 3 -11 2 -44 2 -72 0z"/>
<path d="M6488 403 c8 -3 12 -34 12 -104 0 -59 4 -99 10 -99 6 0 10 40 10 99
0 70 4 101 13 104 6 3 -4 5 -23 5 -19 0 -29 -2 -22 -5z"/>
<path d="M6572 395 c-7 -9 -8 -15 -2 -15 6 0 10 -34 10 -90 l0 -90 73 2 72 2
-62 3 -63 4 0 83 0 83 63 11 62 11 -57 -5 c-34 -3 -59 -1 -63 5 -8 15 -17 13
-33 -4z"/>
<path d="M6790 401 l-55 -5 52 -5 51 -6 -35 -87 c-20 -48 -43 -89 -52 -92 -9
-2 -3 -4 12 -3 26 2 32 10 62 82 l33 80 14 -35 c8 -19 23 -56 33 -82 16 -44
20 -48 49 -47 19 1 23 3 11 6 -15 3 -29 26 -53 86 -17 45 -32 86 -32 90 0 4
21 7 47 7 25 0 44 2 42 4 -8 7 -124 11 -179 7z"/>
<path d="M7011 380 c-9 -27 -8 -30 10 -30 14 0 19 7 19 25 0 24 2 25 74 25 70
0 74 -1 80 -25 4 -17 13 -25 28 -25 17 0 19 3 10 12 -7 7 -12 20 -12 30 0 16
-10 18 -99 18 l-99 0 -11 -30z"/>
<path d="M3520 198 c0 -128 4 -188 10 -178 13 20 13 370 0 370 -6 0 -10 -71
-10 -192z"/>
<path d="M1490 245 c0 -83 4 -135 10 -135 6 0 10 27 10 60 0 47 4 64 20 80 44
44 70 18 70 -72 0 -54 3 -68 15 -68 24 0 21 141 -3 163 -20 19 -67 23 -77 7
-15 -24 -25 -6 -25 45 0 30 -4 55 -10 55 -6 0 -10 -52 -10 -135z"/>
<path d="M2670 248 l0 -133 54 -2 c49 -2 57 0 75 23 30 39 28 104 -4 134 -19
18 -31 22 -60 17 l-35 -6 0 50 c0 37 -4 49 -15 49 -13 0 -15 -21 -15 -132z
m98 6 c29 -20 31 -83 2 -109 -17 -15 -24 -16 -45 -7 -22 10 -25 18 -25 61 0
37 5 53 18 60 23 14 24 14 50 -5z"/>
<path d="M2930 245 c0 -113 2 -135 15 -135 13 0 15 22 15 135 0 113 -2 135
-15 135 -13 0 -15 -22 -15 -135z"/>
<path d="M6110 378 c0 -2 6 -23 14 -48 13 -45 7 -87 -17 -117 -7 -9 -5 -13 7
-13 9 0 21 10 26 23 l9 22 7 -22 c4 -15 14 -23 28 -23 12 0 16 3 10 8 -23 15
-36 80 -24 117 15 45 6 70 -10 30 l-12 -30 -10 28 c-5 15 -14 27 -19 27 -5 0
-9 -1 -9 -2z"/>
<path d="M1251 334 c-79 -66 -45 -201 55 -220 44 -8 99 11 125 44 28 36 7 41
-32 8 -73 -62 -182 -3 -165 88 14 74 106 107 159 58 24 -23 47 -29 47 -13 0 5
-14 21 -31 35 -43 36 -115 37 -158 0z"/>
<path d="M1670 345 c0 -8 7 -15 15 -15 8 0 15 7 15 15 0 8 -7 15 -15 15 -8 0
-15 -7 -15 -15z"/>
<path d="M2180 235 c0 -109 2 -125 16 -125 14 0 16 12 12 95 -2 52 -1 95 2 95
3 0 22 -43 44 -95 21 -52 42 -95 46 -95 4 0 24 44 46 97 l39 97 3 -97 c2 -77
6 -97 17 -97 12 0 15 22 15 126 0 122 -1 125 -21 122 -15 -2 -28 -19 -44 -58
-60 -144 -56 -137 -65 -113 -52 132 -73 173 -91 173 -18 0 -19 -9 -19 -125z"/>
<path d="M2860 345 c0 -8 7 -15 15 -15 8 0 15 7 15 15 0 8 -7 15 -15 15 -8 0
-15 -7 -15 -15z"/>
<path d="M5962 340 c-10 -17 -10 -20 3 -20 8 0 15 9 15 20 0 11 -1 20 -3 20
-1 0 -8 -9 -15 -20z"/>
<path d="M6060 342 c0 -14 6 -22 16 -22 14 0 15 3 3 18 -7 9 -15 19 -16 21 -2
2 -3 -5 -3 -17z"/>
<path d="M5705 275 l0 -75 42 0 43 0 0 55 c0 30 -4 55 -10 55 -5 0 -10 -22
-10 -50 0 -43 -3 -50 -20 -50 -22 0 -25 22 -14 92 6 32 10 37 38 41 21 3 15 4
-19 5 l-50 2 0 -75z"/>
<path d="M6313 343 c48 -2 87 -6 87 -9 0 -2 -7 -16 -16 -29 -10 -15 -12 -25
-5 -25 6 0 11 -16 11 -35 l0 -34 -87 -4 -88 -3 104 -2 104 -2 -6 55 c-3 30 -1
57 4 60 5 4 9 13 9 21 0 11 -19 14 -102 12 l-103 -2 88 -3z"/>
<path d="M4933 323 c-12 -2 -49 -29 -83 -59 -60 -54 -102 -68 -126 -44 -7 7
-26 -7 -59 -40 l-49 -49 65 -60 c35 -33 73 -60 84 -61 13 0 66 45 145 125
l124 125 -34 35 c-19 19 -36 34 -39 34 -4 -1 -16 -4 -28 -6z"/>
<path d="M5447 323 c-11 -10 -8 -123 3 -123 6 0 10 28 10 65 0 65 -1 71 -13
58z"/>
<path d="M7058 323 c34 -2 88 -2 120 0 31 2 3 3 -63 3 -66 0 -92 -1 -57 -3z"/>
<path d="M5550 291 c0 -6 19 -11 45 -11 45 0 45 0 45 -36 0 -28 -3 -35 -17
-32 -10 2 -19 13 -21 26 -3 17 -10 22 -30 22 -23 -1 -25 -2 -9 -11 9 -5 17
-16 17 -24 0 -7 -8 -16 -17 -18 -10 -3 10 -5 45 -6 l62 -1 0 45 0 45 -37 0
c-21 0 -48 3 -60 6 -14 4 -23 2 -23 -5z"/>
<path d="M5954 288 c-3 -4 0 -8 5 -8 6 0 11 -9 11 -20 0 -11 8 -24 17 -27 14
-6 12 -9 -11 -18 -26 -11 -21 -12 44 -12 65 0 70 1 44 12 -23 9 -25 12 -11 18
9 3 17 16 17 27 0 11 5 20 12 20 6 0 8 3 4 7 -10 10 -126 11 -132 1z m94 -25
c-2 -12 -12 -18 -28 -18 -16 0 -26 6 -28 18 -3 13 3 17 28 17 25 0 31 -4 28
-17z"/>
<path d="M1670 200 c0 -73 3 -90 15 -90 12 0 15 17 15 90 0 73 -3 90 -15 90
-12 0 -15 -17 -15 -90z"/>
<path d="M1750 200 c0 -73 3 -90 15 -90 12 0 15 14 15 70 0 67 1 71 26 80 42
16 54 -2 54 -81 0 -55 3 -69 15 -69 22 0 21 142 -1 164 -19 19 -65 21 -83 4
-11 -10 -14 -10 -18 0 -13 35 -23 2 -23 -78z"/>
<path d="M1947 283 c-15 -15 -5 -25 18 -19 32 8 65 -9 65 -33 0 -14 -5 -18
-20 -14 -59 16 -107 -35 -76 -81 15 -23 22 -25 71 -23 l55 2 0 71 c0 56 -4 74
-18 87 -18 17 -82 23 -95 10z m83 -114 c0 -27 -44 -46 -65 -29 -22 18 -19 39
7 49 31 11 58 2 58 -20z"/>
<path d="M2497 279 c-11 -6 -25 -26 -33 -45 -38 -90 68 -164 143 -100 60 52
20 156 -60 156 -18 0 -40 -5 -50 -11z m76 -20 c29 -16 37 -28 37 -61 0 -27
-39 -68 -65 -68 -27 0 -65 41 -65 70 0 19 9 36 26 49 31 24 37 25 67 10z"/>
<path d="M2860 200 c0 -73 3 -90 15 -90 12 0 15 17 15 90 0 73 -3 90 -15 90
-12 0 -15 -17 -15 -90z"/>
<path d="M3021 264 c-29 -37 -29 -106 1 -134 17 -16 33 -20 67 -18 26 2 46 9
49 16 3 10 -4 12 -31 7 -31 -6 -40 -3 -64 21 l-28 29 63 3 c60 3 62 4 62 30 0
70 -77 99 -119 46z m70 -4 c34 -19 23 -40 -21 -40 -43 0 -49 9 -24 34 18 19
20 19 45 6z"/>
<path d="M4494 269 c-31 -34 -74 -52 -111 -46 l-34 6 21 -29 c52 -72 114 -94
177 -62 72 37 73 47 17 103 l-50 50 -20 -22z"/>
<path d="M7020 256 c0 -13 -3 -31 -6 -40 -5 -14 8 -16 105 -16 l111 0 0 25 c0
16 -6 25 -15 25 -8 0 -15 -9 -15 -20 0 -18 -7 -20 -81 -20 l-81 0 6 35 c6 28
4 35 -9 35 -9 0 -15 -9 -15 -24z"/>
<path d="M5492 115 c0 -16 2 -22 5 -12 2 9 2 23 0 30 -3 6 -5 -1 -5 -18z"/>
<path d="M5532 115 c0 -16 2 -22 5 -12 2 9 2 23 0 30 -3 6 -5 -1 -5 -18z"/>
<path d="M5552 115 c0 -16 2 -22 5 -12 2 9 2 23 0 30 -3 6 -5 -1 -5 -18z"/>
<path d="M5572 115 c0 -16 2 -22 5 -12 2 9 2 23 0 30 -3 6 -5 -1 -5 -18z"/>
<path d="M5612 115 c0 -16 2 -22 5 -12 2 9 2 23 0 30 -3 6 -5 -1 -5 -18z"/>
<path d="M5892 115 c0 -16 2 -22 5 -12 2 9 2 23 0 30 -3 6 -5 -1 -5 -18z"/>
<path d="M5912 115 c0 -16 2 -22 5 -12 2 9 2 23 0 30 -3 6 -5 -1 -5 -18z"/>
<path d="M6032 115 c0 -16 2 -22 5 -12 2 9 2 23 0 30 -3 6 -5 -1 -5 -18z"/>
<path d="M6065 115 c0 -13 3 -21 8 -18 4 2 7 10 7 18 0 8 -3 16 -7 18 -5 3 -8
-5 -8 -18z"/>
<path d="M6092 115 c0 -16 2 -22 5 -12 2 9 2 23 0 30 -3 6 -5 -1 -5 -18z"/>
<path d="M6212 115 c0 -16 2 -22 5 -12 2 9 2 23 0 30 -3 6 -5 -1 -5 -18z"/>
<path d="M6255 129 c-4 -5 -4 -13 -1 -16 3 -4 6 0 6 8 0 11 2 11 10 -1 6 -9
10 -10 10 -3 0 17 -17 25 -25 12z"/>
<path d="M6425 129 c-4 -6 -4 -13 -1 -16 3 -4 6 -1 6 6 0 7 5 9 12 5 7 -4 8
-3 4 4 -9 15 -13 15 -21 1z"/>
<path d="M6522 115 c0 -16 2 -22 5 -12 2 9 2 23 0 30 -3 6 -5 -1 -5 -18z"/>
<path d="M6600 115 c0 -14 2 -25 4 -25 2 0 6 11 8 25 3 14 1 25 -3 25 -5 0 -9
-11 -9 -25z"/>
<path d="M6642 115 c0 -16 2 -22 5 -12 2 9 2 23 0 30 -3 6 -5 -1 -5 -18z"/>
<path d="M6862 115 c0 -16 2 -22 5 -12 2 9 2 23 0 30 -3 6 -5 -1 -5 -18z"/>
<path d="M6912 115 c0 -16 2 -22 5 -12 2 9 2 23 0 30 -3 6 -5 -1 -5 -18z"/>
<path d="M5430 116 c0 -8 4 -17 9 -20 5 -4 7 3 4 14 -6 23 -13 26 -13 6z"/>
<path d="M5770 116 c0 -8 4 -17 9 -20 5 -4 7 3 4 14 -6 23 -13 26 -13 6z"/>
<path d="M6680 116 c0 -8 4 -17 9 -20 5 -4 7 3 4 14 -6 23 -13 26 -13 6z"/>
<path d="M6741 114 c0 -11 3 -14 6 -6 3 7 2 16 -1 19 -3 4 -6 -2 -5 -13z"/>
<path d="M5866 107 c3 -10 9 -15 12 -12 3 3 0 11 -7 18 -10 9 -11 8 -5 -6z"/>
</g>
</svg>
